<?xml version="1.0" encoding="UTF-8" standalone="no"?>
<!-- Created with Inkscape (http://www.inkscape.org/) -->

<svg
   xmlns:dc="http://purl.org/dc/elements/1.1/"
   xmlns:cc="http://creativecommons.org/ns#"
   xmlns:rdf="http://www.w3.org/1999/02/22-rdf-syntax-ns#"
   xmlns:svg="http://www.w3.org/2000/svg"
   xmlns="http://www.w3.org/2000/svg"
   xmlns:sodipodi="http://sodipodi.sourceforge.net/DTD/sodipodi-0.dtd"
   xmlns:inkscape="http://www.inkscape.org/namespaces/inkscape"
   id="svg7384"
   sodipodi:docname="sparkleshare-symbolic.svg"
   version="1.1"
   inkscape:version="0.48.3.1 r9886"
   height="16"
   width="16">
  <metadata
     id="metadata90">
    <rdf:RDF>
      <cc:Work
         rdf:about="">
        <dc:format>image/svg+xml</dc:format>
        <dc:type
           rdf:resource="http://purl.org/dc/dcmitype/StillImage" />
        <dc:title>Gnome Symbolic Icon Theme</dc:title>
      </cc:Work>
    </rdf:RDF>
  </metadata>
  <sodipodi:namedview
     inkscape:cy="5.3229693"
     pagecolor="#555753"
     borderopacity="1"
     showborder="false"
     inkscape:bbox-paths="false"
     guidetolerance="10"
     inkscape:object-paths="true"
     inkscape:window-width="1145"
     showguides="true"
     inkscape:object-nodes="true"
     inkscape:snap-bbox="true"
     inkscape:pageshadow="2"
     inkscape:guide-bbox="true"
     inkscape:snap-nodes="false"
     bordercolor="#666666"
     objecttolerance="10"
     id="namedview88"
     showgrid="false"
     inkscape:window-maximized="0"
     inkscape:window-x="100"
     inkscape:snap-global="true"
     inkscape:window-y="27"
     gridtolerance="10"
     inkscape:window-height="708"
     inkscape:snap-to-guides="true"
     inkscape:current-layer="layer15"
     inkscape:snap-bbox-midpoints="false"
     inkscape:zoom="1"
     inkscape:cx="8.0470321"
     inkscape:snap-grids="true"
     inkscape:pageopacity="1">
    <inkscape:grid
       spacingx="1px"
       spacingy="1px"
       id="grid4866"
       empspacing="2"
       enabled="true"
       type="xygrid"
       snapvisiblegridlinesonly="true"
       visible="true" />
  </sodipodi:namedview>
  <title
     id="title9167">Gnome Symbolic Icon Theme</title>
  <defs
     id="defs7386" />
  <g
     inkscape:label="status"
     transform="translate(-482,-381.99998)"
     inkscape:groupmode="layer"
     id="layer9"
     style="display:inline" />
  <g
     inkscape:label="devices"
     transform="translate(-482,-381.99998)"
     inkscape:groupmode="layer"
     id="layer10" />
  <g
     inkscape:label="apps"
     transform="translate(-482,-381.99998)"
     inkscape:groupmode="layer"
     id="layer11" />
  <g
     inkscape:label="actions"
     transform="translate(-482,-381.99998)"
     inkscape:groupmode="layer"
     id="layer12" />
  <g
     inkscape:label="places"
     transform="translate(-482,-381.99998)"
     inkscape:groupmode="layer"
     id="layer13" />
  <g
     inkscape:label="mimetypes"
     transform="translate(-482,-381.99998)"
     inkscape:groupmode="layer"
     id="layer14" />
  <g
     inkscape:label="emblems"
     transform="translate(-482,-381.99998)"
     inkscape:groupmode="layer"
     id="layer15"
     style="display:inline">
    <g
       inkscape:label="emblem-important"
       transform="translate(135.8093,-581.17812)"
       id="g17779" />
    <path
       style="font-size:medium;font-style:normal;font-variant:normal;font-weight:normal;font-stretch:normal;text-indent:0;text-align:start;text-decoration:none;line-height:normal;letter-spacing:normal;word-spacing:normal;text-transform:none;direction:ltr;block-progression:tb;writing-mode:lr-tb;text-anchor:start;baseline-shift:baseline;color:#000000;fill:#bebebe;fill-opacity:1;stroke:none;stroke-width:2;marker:none;visibility:visible;display:inline;overflow:visible;enable-background:new;font-family:Sans;-inkscape-font-specification:Sans"
       d="m 489.78125,383 c -0.68105,0.18249 -1.27409,0.71498 -1.42474,1.42421 -0.30648,0.86195 -0.56168,1.74092 -0.85631,2.60684 -1.11911,0.0249 -2.24438,-0.053 -3.35943,0.0452 -1.19493,0.26614 -1.76656,2.03502 -0.76631,2.84406 0.81417,0.69141 1.71145,1.27841 2.56319,1.92317 -0.31227,1.09629 -0.75361,2.16225 -0.97109,3.28152 -0.0799,1.29304 1.67729,2.29289 2.68419,1.39479 0.78479,-0.56692 1.56556,-1.13937 2.3494,-1.70761 0.93364,0.64349 1.80234,1.38879 2.78568,1.95543 1.11699,0.48964 2.54521,-0.64266 2.21535,-1.85187 -0.26263,-1.0374 -0.63012,-2.04681 -0.93853,-3.07236 0.89525,-0.68599 1.85363,-1.29457 2.70123,-2.03963 0.67556,-0.73357 0.4247,-1.93582 -0.36138,-2.47902 -0.70531,-0.46374 -1.57551,-0.24489 -2.36854,-0.29375 -0.52166,0 -1.04332,0 -1.56498,0 -0.36771,-1.0708 -0.6688,-2.16915 -1.07895,-3.22242 C 491.26166,383.32948 490.42442,383 489.78125,383 z M 490,385.875 c 0.30127,0.8676 0.47462,1.79069 0.86619,2.61999 0.53814,0.69134 1.46025,0.51675 2.22731,0.53621 0.47925,0 0.9585,0 1.43775,0 -0.77045,0.57773 -1.5869,1.09507 -2.32406,1.71644 -0.08,0.054 -0.21492,0.61884 -0.14647,0.26298 -0.35031,0.59327 0.0737,1.23754 0.21554,1.83241 0.15797,0.50024 0.31594,1.00048 0.47391,1.50072 -0.75377,-0.51887 -1.43733,-1.16355 -2.24045,-1.59583 -0.57507,-0.17281 -1.21433,-0.036 -1.64226,0.38928 -0.5391,0.40218 -1.07819,0.80437 -1.61729,1.20655 0.25288,-0.89232 0.6169,-1.76213 0.79362,-2.67041 0.0209,-0.58903 -0.32099,-1.12588 -0.83802,-1.3905 -0.57897,-0.4172 -1.15793,-0.83439 -1.7369,-1.25159 0.94126,-0.0235 1.89043,0.0491 2.8266,-0.0406 0.56688,-0.13136 0.9272,-0.64141 1.03576,-1.18615 0.22291,-0.64317 0.44591,-1.28635 0.66877,-1.92951 z"
       id="path5717-0-9-4"
       inkscape:connector-curvature="0"
       sodipodi:nodetypes="cccccccccccccccccccccccccccccccccccc" />
  </g>
  <g
     inkscape:label="categories"
     transform="translate(-482,-381.99998)"
     inkscape:groupmode="layer"
     id="g4953"
     style="display:inline" />
</svg>
