<?xml version="1.0" encoding="UTF-8" standalone="no"?>
<!-- Created with Inkscape (http://www.inkscape.org/) -->
<svg id="svg8763" xmlns:rdf="http://www.w3.org/1999/02/22-rdf-syntax-ns#" xmlns="http://www.w3.org/2000/svg" height="24.009" width="24.013" version="1.1" xmlns:cc="http://creativecommons.org/ns#" xmlns:xlink="http://www.w3.org/1999/xlink" xmlns:dc="http://purl.org/dc/elements/1.1/">
 <defs id="defs8765">
  <filter id="filter3330" height="1" width="1" color-interpolation-filters="sRGB" y="0" x="0">
   <feColorMatrix id="feColorMatrix3332" values="0" type="saturate"/>
  </filter>
  <filter id="filter4375-3-0" color-interpolation-filters="sRGB" width="1.0248" y="-.35609" x="-.012418" height="1.7122">
   <feGaussianBlur id="feGaussianBlur4377-0-0" stdDeviation="1.0664062"/>
  </filter>
  <linearGradient id="linearGradient11481">
   <stop id="stop11483" stop-color="#a04600" offset="0"/>
   <stop id="stop11485" stop-color="#ce5c00" offset="1"/>
  </linearGradient>
  <linearGradient id="linearGradient21508" y2="18.848" gradientUnits="userSpaceOnUse" x2="24.866" gradientTransform="matrix(.30890 0 0 .27375 301.94 218.48)" y1="30.385" x1="24.866">
   <stop id="stop4910-6" stop-color="#ce5c00" offset="0"/>
   <stop id="stop4912-9" stop-color="#f57900" offset="1"/>
  </linearGradient>
  <linearGradient id="linearGradient21510" y2="221.38" xlink:href="#linearGradient11481" gradientUnits="userSpaceOnUse" x2="315.29" gradientTransform="translate(0,1)" y1="232.34" x1="315.05"/>
  <radialGradient id="radialGradient21512" gradientUnits="userSpaceOnUse" cy="179.01" cx="306.1" gradientTransform="matrix(2.5489 0 0 .51730 -476.41 129.05)" r="8.6094">
   <stop id="stop4615" stop-color="#fff" offset="0"/>
   <stop id="stop4617" stop-color="#fff" stop-opacity="0" offset="1"/>
  </radialGradient>
  <linearGradient id="linearGradient21514" y2="-9.4962" gradientUnits="userSpaceOnUse" x2="25.188" gradientTransform="matrix(.28968 0 0 .17690 301.87 224.04)" y1="50.897" x1="25.188">
   <stop id="stop4991-0" stop-color="#f57900" offset="0"/>
   <stop id="stop4993-4" stop-color="#fcaf3e" offset=".060437"/>
   <stop id="stop4995-6" stop-color="#fcaf3e" offset=".17754"/>
   <stop id="stop4997-0" stop-color="#f57900" offset=".89422"/>
   <stop id="stop4999-3" stop-color="#ce5c00" offset="1"/>
  </linearGradient>
  <linearGradient id="linearGradient21516" y2="223.68" xlink:href="#linearGradient11481" gradientUnits="userSpaceOnUse" x2="314.47" y1="233.24" x1="314.49"/>
  <linearGradient id="linearGradient21518" y2="208.75" gradientUnits="userSpaceOnUse" x2="320.56" y1="184.62" x1="312.44">
   <stop id="stop4631" stop-color="#fff" offset="0"/>
   <stop id="stop4633" stop-color="#fff" stop-opacity="0" offset="1"/>
  </linearGradient>
  <radialGradient id="radialGradient21520" gradientUnits="userSpaceOnUse" cy="525.86" cx="147.02" gradientTransform="matrix(1.5869 1.2599e-7 -5.9773e-8 .75290 -86.287 85.9)" r="103.05">
   <stop id="stop4349-3-4" stop-color="#fff" offset="0"/>
   <stop id="stop16502" stop-color="#fff" stop-opacity=".49804" offset=".5"/>
   <stop id="stop4351-6-4" stop-color="#fff" stop-opacity="0" offset="1"/>
  </radialGradient>
  <linearGradient id="linearGradient21532" y2="263.79" gradientUnits="userSpaceOnUse" x2="117.64" y1="220.79" x1="117.64">
   <stop id="stop21528" stop-color="#fff" offset="0"/>
   <stop id="stop21530" stop-color="#fff" stop-opacity="0.36" offset="1"/>
  </linearGradient>
  <linearGradient id="linearGradient21612" y2="251.79" gradientUnits="userSpaceOnUse" x2="94.143" gradientTransform="translate(-333.93 -139.65)" y1="251.79" x1="70.143">
   <stop id="stop21608" stop-color="#5dbbc6" offset="0"/>
   <stop id="stop21610" stop-color="#96dadb" offset="1"/>
  </linearGradient>
  <linearGradient id="linearGradient21638" y2="112.14" gradientUnits="userSpaceOnUse" x2="-249.54" y1="112.14" x1="-263.79">
   <stop id="stop21634" stop-color="#3e3e3e" offset="0"/>
   <stop id="stop21636" stop-opacity="0" offset="1"/>
  </linearGradient>
 </defs>
 <metadata id="metadata8768">
  <rdf:RDF>
   <cc:Work rdf:about="">
    <dc:format>image/svg+xml</dc:format>
    <dc:type rdf:resource="http://purl.org/dc/dcmitype/StillImage"/>
    <dc:title/>
   </cc:Work>
  </rdf:RDF>
 </metadata>
 <g id="layer1" transform="translate(-474.29 -337.78)">
  <g id="g8506" transform="translate(374.14 98)">
   <rect id="rect3589" height="24" width="120" display="none" y="241.6" x="97.775" fill="#eeeeec"/>
   <rect id="rect4698" height="48" width="48" display="none" y="25.598" x="87.775" fill="#eeeeec"/>
   <rect id="rect4700" height="32" width="32" display="none" y="101.6" x="94.775" fill="#eeeeec"/>
   <rect id="rect4702" height="22" width="22" display="none" y="152.6" x="94.775" fill="#eeeeec"/>
   <rect id="rect4704" height="16" width="16" display="none" y="194.6" x="94.775" fill="#eeeeec"/>
   <rect id="rect4706" height="24" width="24" display="none" y="151.6" x="93.775" fill="#eeeeec"/>
   <rect id="rect4708" height="256" width="256" display="none" y="3.5985" x="-188.22" fill="#eeeeec"/>
   <text id="text4710" style="enable-background:new" xml:space="preserve" font-size="18.301px" display="none" y="-2.8879292" x="-187.25412" font-family="Bitstream Vera Sans" fill="#000000"><tspan id="tspan4712" x="-187.25412" y="-2.8879292">places</tspan></text>
   <text id="text4714" style="enable-background:new" line-height="125%" font-weight="bold" xml:space="preserve" font-size="18.301px" y="-2.8879292" x="-66.254158" font-family="Droid Sans" display="none" fill="#000000"><tspan id="tspan4716" x="-66.254158" y="-2.8879292">sparkleshare</tspan></text>
   <rect id="rect22378" height="22" width="22" display="none" y="152.6" x="124.78" fill="#ededed"/>
   <rect id="rect22380" height="24" width="24" display="none" y="151.6" x="123.78" fill="#ededed"/>
   <rect id="rect12657-5" style="color:#000000;enable-background:new" rx="0" ry="0" height="0" width="2" y="165.6" x="467.78" fill="#888a85"/>
   <use id="use3340" style="enable-background:new" xlink:href="#g3326" transform="translate(-203.22 225.6)" height="400" width="500" y="0" x="0"/>
   <rect id="rect20728" transform="rotate(-90)" rx="3.7196" ry="3.7196" height="22.998" width="22.998" stroke="#6196c5" stroke-linecap="round" y="100.64" x="-263.29" stroke-width="1.002" fill="url(#linearGradient21612)"/>
   <path id="path21534" opacity="0.333" d="m248.42 154.51h-6.8943s-2.6516 0.57452-3.0494-3.0494v-11.093s0.35356-1.5468 1.9446-1.9445h5.1265c1.5468 0.48614 2.0771 2.0771 2.0771 2.0771h6.8501s0.75131 0.30935 1.1049 1.1048v9.8276c-0.0442 2.1655-2.0992 3.0992-2.0992 3.0992z" transform="translate(-134.86 105.79)" stroke="#fff" stroke-width="1px" fill="none"/>
   <g id="g21596" opacity=".5">
    <path id="rect21555" opacity=".25" d="m103.14 239.79h7l2 12z"/>
    <path id="path21558" opacity=".25" d="m121.14 263.79h-7l-2-12z"/>
    <path id="path21560" opacity=".25" d="m121.14 239.79h-7l-2 12z"/>
    <path id="path21562" opacity=".25" d="m103.14 263.79h7l2-12z"/>
    <path id="path21570" opacity=".25" d="m124.14 242.79 0.00001 7-12 2z"/>
    <path id="path21572" opacity=".25" d="m100.14 260.79-0.00001-7 12-2z"/>
    <path id="path21574" opacity=".25" d="m124.14 260.79v-7l-12-2z"/>
    <path id="path21576" opacity=".25" d="m100.14 242.79 0.00001 7 12 2z"/>
   </g>
   <g id="g21498" transform="translate(9.3677 49.194)">
    <g id="g10370" style="enable-background:new" transform="translate(-208.22 -24.402)">
     <path id="path10372" style="enable-background:new" d="m304.53 220.5c-0.57203 0.064-1.0035 0.54941-1 1.125v10.344c0.00006 0.62129 0.50371 1.1249 1.125 1.125h12.719c0.62129-0.00006 1.1249-0.50371 1.125-1.125v-8.3125c-0.00006-0.62129-0.50371-1.1249-1.125-1.125h-5.8438c-0.3334 0-0.20853 0.0527-0.40625-0.21875l-0.96875-1.3438c-0.2098-0.29211-0.54661-0.46632-0.90625-0.46875h-4.5938c-0.0416-0.002-0.0834-0.002-0.125 0z" fill-rule="evenodd" stroke="url(#linearGradient21510)" fill="url(#linearGradient21508)"/>
     <path id="path10374" opacity=".4" style="enable-background:new" d="m304.62 221.44c-0.10325 0.0115-0.15688 0.0836-0.15625 0.1875v10.344c0.00001 0.11468 0.0728 0.18749 0.1875 0.1875h12.719c0.11468-0.00001 0.18749-0.0728 0.1875-0.1875v-8.3125c-0.00001-0.11468-0.0728-0.18749-0.1875-0.1875h-5.8438c-0.0587 0-0.0805-0.001-0.15625 0-0.0757 0.001-0.29559 0.0325-0.5625-0.125-0.26691-0.15754-0.34468-0.32772-0.375-0.375-0.0303-0.0473-0.0322-0.0522-0.0625-0.0937l-0.96875-1.3438c-0.0355-0.0494-0.0954-0.0933-0.15625-0.0937h-4.5938c-0.0104 0.00017-0.0208 0.00017-0.0313 0l0.00005-0.0001z" stroke="url(#radialGradient21512)" fill="none"/>
     <path id="path10377" stroke-linejoin="round" style="enable-background:new" d="m309.78 222.5c-0.2554 0-0.45965 0.13987-0.59375 0.34375-0.43264 0.54853-1.1235 1.6562-1.6562 1.6562h-2.6875c-0.83807 0-1.3437 0.5428-1.3438 1.4688v6.125c0 1.3376 0.65057 2.4062 1.4688 2.4062h12.062c0.81819 0 1.4688-1.0687 1.4688-2.4062v-8.9062c0-0.37505-0.29595-0.6875-0.65625-0.6875h-8.0625z" fill-rule="evenodd" stroke="url(#linearGradient21516)" fill="url(#linearGradient21514)"/>
     <path id="path10379" opacity=".40639" stroke-linejoin="round" style="enable-background:new" d="m310.94 183.5c-0.74659 0.74659-1.6086 2-2.4062 2h-2.6875c-0.20314 0-0.22418 0.0344-0.25 0.0625-0.0258 0.0281-0.0937 0.12531-0.0937 0.40625v7.5312h13v-10h-7.5625-0.00005z" transform="translate(-1,40)" stroke="url(#linearGradient21518)" fill="none"/>
     <path id="path10381" opacity=".71595" style="enable-background:new" d="m250.06 476.75c-0.0458 1.3355-0.49131 2.357-1.2188 3.0625-0.72744 0.70545-1.7687 1.125-3.1875 1.125h-197.25c-1.4189 0-2.4805-0.44927-3.2188-1.1562-0.73826-0.70698-1.1869-1.7049-1.2188-3.0312v3c0.03187 1.3263 0.48049 2.3243 1.2188 3.0312 0.73826 0.70698 1.7998 1.1562 3.2188 1.1562h197.25c1.4188 0 2.4601-0.41955 3.1875-1.125 0.72744-0.70545 1.1729-1.727 1.2188-3.0625v-3z" fill-rule="evenodd" transform="matrix(.065331 0 0 .29412 301.15 90.449)" filter="url(#filter4375-3-0)" fill="url(#radialGradient21520)"/>
    </g>
    <path id="path5717-2" stroke-linejoin="round" style="enable-background:new" d="m103.15 201.61c-0.1681 0.0217-0.3164 0.15386-0.3579 0.31842l-0.7155 2.1494c-0.019 0.0382-0.032 0.0777-0.039 0.11973-0.038-0.0191-0.078-0.0318-0.1196-0.0395h-2.1866c-0.1222 0-0.2415 0.0637-0.3181 0.15921-0.1612 0.18061-0.1208 0.50107 0.079 0.63685l1.7891 1.3136 0.038 0.19106-0.6757 2.1095c-0.094 0.32925 0.3466 0.66015 0.6361 0.47763l1.7889-1.3134h0.229l1.7891 1.3134c0.1556 0.1019 0.3785 0.0841 0.5167-0.0395 0.1171-0.10827 0.1659-0.28518 0.1196-0.4379l-0.6759-2.1095c-0.064-0.0127 0.025-0.12737 0.038-0.19105l1.7889-1.3136c0.2004-0.13577 0.2401-0.45623 0.079-0.63684-0.076-0.0955-0.1958-0.15526-0.318-0.15921h-2.2264c-0.042 0.0127-0.081 0.0204-0.1196 0.0395-0.013-0.042-0.02-0.0815-0.039-0.11973l-0.6759-2.1493c-0.02-0.0752-0.062-0.14546-0.1196-0.19908-0.084-0.0815-0.2016-0.1261-0.318-0.11973l0.014 0.00013-0.0006 0.00001z" stroke="#c66f11" stroke-linecap="round" fill="none"/>
    <path id="path5717" stroke-linejoin="round" style="enable-background:new" d="m103.15 200.61c-0.1681 0.0217-0.3164 0.15386-0.3579 0.31842l-0.7155 2.1494c-0.019 0.0382-0.032 0.0777-0.039 0.11973-0.038-0.0191-0.078-0.0318-0.1196-0.0395h-2.1866c-0.1222 0-0.2415 0.0637-0.3181 0.15921-0.1612 0.18061-0.1208 0.50107 0.079 0.63685l1.7891 1.3136 0.038 0.19106-0.6757 2.1095c-0.094 0.32925 0.3466 0.66015 0.6361 0.47763l1.7889-1.3134h0.229l1.7891 1.3134c0.1556 0.1019 0.3785 0.0841 0.5167-0.0395 0.1171-0.10827 0.1659-0.28518 0.1196-0.4379l-0.6759-2.1095c-0.064-0.0127 0.025-0.12737 0.038-0.19105l1.7889-1.3136c0.2004-0.13577 0.2401-0.45623 0.079-0.63684-0.076-0.0955-0.1958-0.15526-0.318-0.15921h-2.2264c-0.042 0.0127-0.081 0.0204-0.1196 0.0395-0.013-0.042-0.02-0.0815-0.039-0.11973l-0.6759-2.1493c-0.02-0.0752-0.062-0.14546-0.1196-0.19908-0.084-0.0815-0.2016-0.1261-0.318-0.11973l0.014 0.00013-0.0006 0.00001z" stroke="#fff" stroke-linecap="round" fill="none"/>
   </g>
   <rect id="rect21524" opacity=".83759" rx="2.8127" ry="2.8127" height="20.998" width="20.998" stroke="url(#linearGradient21532)" stroke-linecap="round" y="241.29" x="101.64" stroke-width="1.002" fill="none"/>
   <rect id="rect21630" opacity="0.33" ry="3.9071" rx="3.9071" transform="rotate(-90)" height="22.998" width="22.998" stroke="url(#linearGradient21638)" stroke-linecap="round" y="100.64" x="-263.29" stroke-width="1.002" fill="none"/>
  </g>
 </g>
</svg>
