<?xml version="1.0" encoding="UTF-8" standalone="no"?>
<!-- Created with Inkscape (http://www.inkscape.org/) -->
<svg id="svg2" xmlns:rdf="http://www.w3.org/1999/02/22-rdf-syntax-ns#" xmlns="http://www.w3.org/2000/svg" height="48" width="48" version="1.1" xmlns:cc="http://creativecommons.org/ns#" xmlns:xlink="http://www.w3.org/1999/xlink" xmlns:dc="http://purl.org/dc/elements/1.1/">
 <defs id="defs4">
  <radialGradient id="radialGradient3989" gradientUnits="userSpaceOnUse" cy="494.97" cx="230.37" gradientTransform="matrix(3.6081 0 0 4.2003 -286.48 -2311.2)" r="24">
   <stop id="stop4001" stop-color="#f0f0f0" offset="0"/>
   <stop id="stop3999" stop-color="#efefef" offset=".23710"/>
   <stop id="stop3900" stop-color="#f3f3f3" offset="1"/>
  </radialGradient>
  <filter id="filter4029" height="1.6491" width="1.2417" color-interpolation-filters="sRGB" y="-.32457" x="-.12087">
   <feGaussianBlur id="feGaussianBlur4031" stdDeviation="1.8256881"/>
  </filter>
 </defs>
 <metadata id="metadata7">
  <rdf:RDF>
   <cc:Work rdf:about="">
    <dc:format>image/svg+xml</dc:format>
    <dc:type rdf:resource="http://purl.org/dc/dcmitype/StillImage"/>
    <dc:title/>
   </cc:Work>
  </rdf:RDF>
 </metadata>
 <g id="layer1" transform="translate(-208 -527.36)">
  <rect id="rect3868" transform="rotate(90)" height="48" width="48" y="-256" x="527.36" fill="url(#radialGradient3989)"/>
  <path id="path4003" opacity=".65421" d="m249.5 555.36c0 3.7279-8.1148 6.75-18.125 6.75s-18.125-3.0221-18.125-6.75 8.1148-6.75 18.125-6.75 18.125 3.0221 18.125 6.75z" transform="matrix(1.8661 0 0 3.6982 -199.89 -1500.4)" filter="url(#filter4029)" fill="#fff"/>
  <path id="path3991" opacity=".1" d="m233.7 502.41c0 3.4171-2.7701 6.1872-6.1872 6.1872s-6.1872-2.7701-6.1872-6.1872 2.7701-6.1872 6.1872-6.1872 6.1872 2.7701 6.1872 6.1872z" transform="matrix(.80812 0 0 -.80812 39.143 953.37)"/>
  <path id="path3872" d="m233.7 502.41c0 3.4171-2.7701 6.1872-6.1872 6.1872s-6.1872-2.7701-6.1872-6.1872 2.7701-6.1872 6.1872-6.1872 6.1872 2.7701 6.1872 6.1872z" transform="matrix(.80812 0 0 -.80812 39.143 952.37)" fill="#fff"/>
  <path id="path3878" d="m233.7 502.41c0 3.4171-2.7701 6.1872-6.1872 6.1872s-6.1872-2.7701-6.1872-6.1872 2.7701-6.1872 6.1872-6.1872 6.1872 2.7701 6.1872 6.1872z" transform="matrix(.48487 0 0 -.48487 112.69 789.97)" fill="#8e8e8e"/>
  <path id="path3882" opacity=".15" fill="none" transform="matrix(1.1362 0 0 1.1753 -26.627 -35.738)" stroke="#000" stroke-linecap="round" stroke-width=".91469" d="m232.56 505.99c-1.9749 2.7886-5.8365 3.4482-8.6251 1.4734-0.55651-0.39412-1.044-0.87753-1.4428-1.4307"/>
  <path id="path3993" opacity=".1" d="m233.7 502.41c0 3.4171-2.7701 6.1872-6.1872 6.1872s-6.1872-2.7701-6.1872-6.1872 2.7701-6.1872 6.1872-6.1872 6.1872 2.7701 6.1872 6.1872z" transform="matrix(.80812 0 0 -.80812 57.143 953.37)"/>
  <path id="path3995" d="m233.7 502.41c0 3.4171-2.7701 6.1872-6.1872 6.1872s-6.1872-2.7701-6.1872-6.1872 2.7701-6.1872 6.1872-6.1872 6.1872 2.7701 6.1872 6.1872z" transform="matrix(.80812 0 0 -.80812 57.143 952.37)" fill="#fff"/>
  <path id="path3997" d="m233.7 502.41c0 3.4171-2.7701 6.1872-6.1872 6.1872s-6.1872-2.7701-6.1872-6.1872 2.7701-6.1872 6.1872-6.1872 6.1872 2.7701 6.1872 6.1872z" transform="matrix(.48487 0 0 -.48487 130.69 789.97)" fill="#8e8e8e"/>
  <path id="path4053" opacity=".70093" d="m232.56 505.99c-1.9749 2.7886-5.8365 3.4482-8.6251 1.4734-0.55651-0.39412-1.044-0.87753-1.4428-1.4307" transform="matrix(1.012 0 0 1.1753 1.6222 -36.738)" stroke="#fff" stroke-linecap="round" stroke-width=".96918" fill="none"/>
 </g>
</svg>
