<?xml version="1.0" encoding="UTF-8"?>
<svg height="128px" viewBox="0 0 128 128" width="128px" xmlns="http://www.w3.org/2000/svg" xmlns:xlink="http://www.w3.org/1999/xlink">
    <clipPath id="a">
        <rect height="128" width="128"/>
    </clipPath>
    <clipPath id="b">
        <rect height="128" width="128"/>
    </clipPath>
    <filter id="c" height="100%" width="100%" x="0%" y="0%">
        <feColorMatrix in="SourceGraphic" type="matrix" values="0 0 0 0 1 0 0 0 0 1 0 0 0 0 1 0 0 0 1 0"/>
    </filter>
    <mask id="d">
        <g clip-path="url(#b)" filter="url(#c)">
            <g clip-path="url(#a)">
                <path d="m 20.679688 11.867188 c -4.796876 -0.023438 -8.6875 3.890624 -8.6875 8.6875 v 86.890624 h 95.453124 c 4.945313 0 8.6875 -3.441406 8.6875 -8.734374 v -70 c 0 -4.796876 -3.890624 -8.691407 -8.6875 -8.6875 l -51.445312 -0.023438 l -8 -8 z m 0 0" fill="#fb8c14"/>
                <path d="m 64 34 l -8.6875 8.277344 h -34.632812 c -4.796876 0 -8.6875 3.890625 -8.6875 8.6875 v 65.167968 h 95.488281 c 4.320312 0 8.652343 -3.59375 8.652343 -8.683593 v -64.734375 c 0 -4.796875 -3.890624 -8.6875 -8.6875 -8.6875 z m 0 0" fill="#fff1db"/>
                <path d="m 116.132812 105.273438 v 2.171874 c 0 4.796876 -3.890624 8.6875 -8.6875 8.6875 h -95.578124 v -2.171874 h 95.578124 c 4.796876 0 8.6875 -3.890626 8.6875 -8.6875 z m 0 0" fill="#fb8c14"/>
                <path d="m 569.617711 133.878011 c -1.946492 0.248867 -3.661892 1.786506 -4.141849 3.697445 l -8.274809 24.931084 l -1.839834 0.93325 h -25.295497 c -1.413205 0 -2.790859 0.737711 -3.679668 1.848722 c -1.85761 2.0887 -1.395429 5.812809 0.915473 7.386 l 20.700355 15.24307 l 0.435517 2.213133 l -7.812629 24.468905 c -1.084347 3.821877 4.008527 7.661531 7.359336 5.546166 l 20.691467 -15.24307 h 2.64865 l 20.700355 15.24307 c 1.795394 1.182116 4.372939 0.97769 5.972795 -0.462181 c 1.350989 -1.25322 1.919827 -3.306368 1.386542 -5.075097 l -7.821517 -24.477793 c -0.737711 -0.142209 0.293307 -1.475422 0.444404 -2.213133 l 20.691467 -15.24307 c 2.319791 -1.573191 2.773083 -5.288412 0.906585 -7.386 c -0.871032 -1.111011 -2.257574 -1.804282 -3.67078 -1.848722 h -25.757677 l -1.830946 -0.924362 l -7.821516 -24.939972 c -0.231091 -0.871033 -0.719935 -1.688737 -1.386542 -2.310903 c -0.968801 -0.942137 -2.328679 -1.457646 -3.679668 -1.386542 h 0.168874 z m 0 0" fill="none" stroke="#fb8c14" stroke-linecap="round" stroke-linejoin="round" stroke-width="11.3768" transform="matrix(0.439493 0 0 0.439493 -186.44833 -3.03373)"/>
            </g>
        </g>
    </mask>
    <mask id="e">
        <g filter="url(#c)">
            <rect fill-opacity="0.8" height="128" width="128"/>
        </g>
    </mask>
    <linearGradient id="f" gradientTransform="matrix(0 0.37 -0.98462 0 295.38501 -30.360001)" gradientUnits="userSpaceOnUse" x1="300" x2="428" y1="235" y2="235">
        <stop offset="0" stop-color="#f9f06b"/>
        <stop offset="1" stop-color="#f5c211"/>
    </linearGradient>
    <clipPath id="g">
        <rect height="128" width="128"/>
    </clipPath>
    <clipPath id="h">
        <rect height="128" width="128"/>
    </clipPath>
    <path d="m 20.679688 11.867188 c -4.796876 -0.023438 -8.6875 3.890624 -8.6875 8.6875 v 86.890624 h 95.453124 c 4.945313 0 8.6875 -3.441406 8.6875 -8.734374 v -70 c 0 -4.796876 -3.890624 -8.691407 -8.6875 -8.6875 l -51.445312 -0.023438 l -8 -8 z m 0 0" fill="#fb8c14"/>
    <path d="m 64 34 l -8.6875 8.277344 h -34.632812 c -4.796876 0 -8.6875 3.890625 -8.6875 8.6875 v 65.167968 h 95.488281 c 4.320312 0 8.652343 -3.59375 8.652343 -8.683593 v -64.734375 c 0 -4.796875 -3.890624 -8.6875 -8.6875 -8.6875 z m 0 0" fill="#fff1db"/>
    <path d="m 116.132812 105.273438 v 2.171874 c 0 4.796876 -3.890624 8.6875 -8.6875 8.6875 h -95.578124 v -2.171874 h 95.578124 c 4.796876 0 8.6875 -3.890626 8.6875 -8.6875 z m 0 0" fill="#fb8c14"/>
    <path d="m 63.89466666052 55.80471868842 c -0.85546960856 0.10937530443 -1.60937590076 0.78515688146 -1.82031364256 1.62500119539 l -3.63672063184 10.95703690041 l -0.80859416416 0.41015684225 h -11.11719386302 c -0.62109370507 0 -1.22656299449 0.32421882052 -1.61718832832 0.81250037795 c -0.81640659173 0.9179690291 -0.6132812775 2.55468886584 0.40234397519 3.246095298 l 9.09766112002 6.69922256351 l 0.19140667288 0.97265646157 l -3.4335957571 10.75391246516 c -0.47656291607 1.67968818836 1.76171955681 3.36718924378 3.23437665665 2.43750113384 l 9.09375490623 -6.69922256351 h 1.16406313445 l 9.09766112002 6.69922256351 c 0.78906309524 0.51953170719 1.92187607993 0.42968791117 2.62500159294 -0.20312531423 c 0.59375020858 -0.55078141746 0.84375052771 -1.45312559142 0.60937550321 -2.23046960582 l -3.43750197088 -10.75781867895 c -0.32421882052 -0.06249986004 0.12890637335 -0.64843764105 0.19531244717 -0.97265646157 l 9.09375490623 -6.69922256351 c 1.01953190596 -0.69140643216 1.21875056692 -2.32422005512 0.39843776141 -3.246095298 c -0.38281246678 -0.48828155742 -0.99218796998 -0.79296930903 -1.61328211454 -0.81250037795 h -11.32031873776 l -0.80468795038 -0.40625062847 l -3.43750153139 -10.9609431142 c -0.10156287686 -0.38281290627 -0.31640639296 -0.74218809034 -0.60937550321 -1.01562569218 c -0.42578125789 -0.41406261654 -1.02343811975 -0.64062521348 -1.61718832832 -0.60937550321 h 0.07421894088 z m 0 0" fill="none" stroke="#fb8c14" stroke-linecap="round" stroke-linejoin="round" stroke-width="5.0000239624"/>
    <g clip-path="url(#h)" mask="url(#d)">
        <g clip-path="url(#g)" mask="url(#e)">
            <path d="m 128 80.640625 v 47.359375 h -128 v -47.359375 z m 0 0" fill="url(#f)"/>
            <path d="m 13.308594 80.640625 l 47.355468 47.359375 h 21.214844 l -47.359375 -47.359375 z m 42.421875 0 l 47.363281 47.359375 h 21.214844 l -47.363282 -47.359375 z m 42.429687 0 l 29.839844 29.839844 v -21.210938 l -8.628906 -8.628906 z m -98.160156 7.90625 v 21.214844 l 18.238281 18.238281 h 21.214844 z m 0 0"/>
        </g>
    </g>
</svg>
