<?xml version="1.0" encoding="UTF-8"?>
<svg height="128px" viewBox="0 0 128 128" width="128px" xmlns="http://www.w3.org/2000/svg">
    <path d="m 20.679688 11.867188 c -4.796876 -0.023438 -8.6875 3.890624 -8.6875 8.6875 v 86.890624 h 95.453124 c 4.945313 0 8.6875 -3.441406 8.6875 -8.734374 v -70 c 0 -4.796876 -3.890624 -8.691407 -8.6875 -8.6875 l -51.445312 -0.023438 l -8 -8 z m 0 0" fill="#fb8c14"/>
    <path d="m 64 34 l -8.6875 8.277344 h -34.632812 c -4.796876 0 -8.6875 3.890625 -8.6875 8.6875 v 65.167968 h 95.488281 c 4.320312 0 8.652343 -3.59375 8.652343 -8.683593 v -64.734375 c 0 -4.796875 -3.890624 -8.6875 -8.6875 -8.6875 z m 0 0" fill="#fff1db"/>
    <path d="m 116.132812 105.273438 v 2.171874 c 0 4.796876 -3.890624 8.6875 -8.6875 8.6875 h -95.578124 v -2.171874 h 95.578124 c 4.796876 0 8.6875 -3.890626 8.6875 -8.6875 z m 0 0" fill="#fb8c14"/>
    <path d="m 63.89466666052 55.80471868842 c -0.85546960856 0.10937530443 -1.60937590076 0.78515688146 -1.82031364256 1.62500119539 l -3.63672063184 10.95703690041 l -0.80859416416 0.41015684225 h -11.11719386302 c -0.62109370507 0 -1.22656299449 0.32421882052 -1.61718832832 0.81250037795 c -0.81640659173 0.9179690291 -0.6132812775 2.55468886584 0.40234397519 3.246095298 l 9.09766112002 6.69922256351 l 0.19140667288 0.97265646157 l -3.4335957571 10.75391246516 c -0.47656291607 1.67968818836 1.76171955681 3.36718924378 3.23437665665 2.43750113384 l 9.09375490623 -6.69922256351 h 1.16406313445 l 9.09766112002 6.69922256351 c 0.78906309524 0.51953170719 1.92187607993 0.42968791117 2.62500159294 -0.20312531423 c 0.59375020858 -0.55078141746 0.84375052771 -1.45312559142 0.60937550321 -2.23046960582 l -3.43750197088 -10.75781867895 c -0.32421882052 -0.06249986004 0.12890637335 -0.64843764105 0.19531244717 -0.97265646157 l 9.09375490623 -6.69922256351 c 1.01953190596 -0.69140643216 1.21875056692 -2.32422005512 0.39843776141 -3.246095298 c -0.38281246678 -0.48828155742 -0.99218796998 -0.79296930903 -1.61328211454 -0.81250037795 h -11.32031873776 l -0.80468795038 -0.40625062847 l -3.43750153139 -10.9609431142 c -0.10156287686 -0.38281290627 -0.31640639296 -0.74218809034 -0.60937550321 -1.01562569218 c -0.42578125789 -0.41406261654 -1.02343811975 -0.64062521348 -1.61718832832 -0.60937550321 h 0.07421894088 z m 0 0" fill="none" stroke="#fb8c14" stroke-linecap="round" stroke-linejoin="round" stroke-width="5.0000239624"/>
</svg>
