<?xml version="1.0" encoding="UTF-8" standalone="no"?>
<!-- Created with Inkscape (http://www.inkscape.org/) -->
<svg id="svg7384" xmlns:rdf="http://www.w3.org/1999/02/22-rdf-syntax-ns#" xmlns="http://www.w3.org/2000/svg" height="16" width="16" version="1.1" xmlns:cc="http://creativecommons.org/ns#" xmlns:dc="http://purl.org/dc/elements/1.1/">
 <metadata id="metadata90">
  <rdf:RDF>
   <cc:Work rdf:about="">
    <dc:format>image/svg+xml</dc:format>
    <dc:type rdf:resource="http://purl.org/dc/dcmitype/StillImage"/>
    <dc:title>Gnome Symbolic Icon Theme</dc:title>
   </cc:Work>
  </rdf:RDF>
 </metadata>
 <title id="title9167">Gnome Symbolic Icon Theme</title>
 <g id="layer15" transform="translate(-482 -382)">
  <path id="path5717-0-9-4" style="block-progression:tb;text-indent:0;color:#000000;enable-background:new;text-transform:none" d="m489.78 383c-0.68105 0.18249-1.2741 0.71498-1.4247 1.4242-0.30648 0.86195-0.56168 1.7409-0.85631 2.6068-1.1191 0.0249-2.2444-0.053-3.3594 0.0452-1.1949 0.26614-1.7666 2.035-0.76631 2.8441 0.81417 0.69141 1.7114 1.2784 2.5632 1.9232-0.31227 1.0963-0.75361 2.1622-0.97109 3.2815-0.0799 1.293 1.6773 2.2929 2.6842 1.3948 0.78479-0.56692 1.5656-1.1394 2.3494-1.7076 0.93364 0.64349 1.8023 1.3888 2.7857 1.9554 1.117 0.48964 2.5452-0.64266 2.2154-1.8519-0.26263-1.0374-0.63012-2.0468-0.93853-3.0724 0.89525-0.68599 1.8536-1.2946 2.7012-2.0396 0.67556-0.73357 0.4247-1.9358-0.36138-2.479-0.70531-0.46374-1.5755-0.24489-2.3685-0.29375h-1.565c-0.36771-1.0708-0.6688-2.1692-1.079-3.2224-0.13-0.48-0.97-0.81-1.61-0.81zm0.22 2.88c0.30127 0.8676 0.47462 1.7907 0.86619 2.62 0.53814 0.69134 1.4602 0.51675 2.2273 0.53621h1.4378c-0.77045 0.57773-1.5869 1.0951-2.3241 1.7164-0.08 0.054-0.21492 0.61884-0.14647 0.26298-0.35031 0.59327 0.0737 1.2375 0.21554 1.8324 0.15797 0.50024 0.31594 1.0005 0.47391 1.5007-0.75377-0.51887-1.4373-1.1636-2.2404-1.5958-0.57507-0.17281-1.2143-0.036-1.6423 0.38928-0.5391 0.40218-1.0782 0.80437-1.6173 1.2066 0.25288-0.89232 0.6169-1.7621 0.79362-2.6704 0.0209-0.58903-0.32099-1.1259-0.83802-1.3905-0.57897-0.4172-1.1579-0.83439-1.7369-1.2516 0.94126-0.0235 1.8904 0.0491 2.8266-0.0406 0.56688-0.13136 0.9272-0.64141 1.0358-1.1862 0.22291-0.64317 0.44591-1.2864 0.66877-1.9295z" fill="#bebebe"/>
 </g>
</svg>
