<?xml version="1.0" encoding="UTF-8" standalone="no"?>
<!-- Created with Inkscape (http://www.inkscape.org/) -->
<svg id="svg11300" xmlns:rdf="http://www.w3.org/1999/02/22-rdf-syntax-ns#" style="enable-background:new" xmlns="http://www.w3.org/2000/svg" height="300" width="400" version="1.0" xmlns:cc="http://creativecommons.org/ns#" xmlns:xlink="http://www.w3.org/1999/xlink" xmlns:dc="http://purl.org/dc/elements/1.1/">
 <title id="title2348">Text Editor</title>
 <defs id="defs3">
  <pattern id="pattern53472" xlink:href="#pattern50106" patternTransform="matrix(-.47890 -.96646 -.96646 .47890 127.75 198.38)"/>
  <pattern id="pattern52282" xlink:href="#pattern48916" patternTransform="matrix(-.47890 -.96646 -.96646 .47890 -161.78 6.9926)"/>
  <pattern id="pattern50106" xlink:href="#pattern15307" patternTransform="matrix(-.47890 -.96646 -.96646 .47890 117.82 3.2457)"/>
  <pattern id="pattern48916" xlink:href="#pattern17129" patternTransform="matrix(-.47890 -.96646 -.96646 .47890 -306.78 -123.97)"/>
  <pattern id="pattern17129" xlink:href="#pattern2420" patternTransform="matrix(-.47890 -.96646 -.96646 .47890 -306.78 -123.97)"/>
  <pattern id="pattern15307" xlink:href="#pattern2420" patternTransform="matrix(-.47890 -.96646 -.96646 .47890 117.82 3.2457)"/>
  <linearGradient id="linearGradient6424-5-0" y2="18.392" gradientUnits="userSpaceOnUse" y1="18.538" gradientTransform="matrix(.66667 0 0 .27667 6.5065 15.425)" x2="32.938" x1="18.188">
   <stop id="stop1815-2-1-9" offset="0"/>
   <stop id="stop1817-4-8-3" stop-opacity="0" offset="1"/>
  </linearGradient>
  <linearGradient id="linearGradient6432-5-3" y2="14.691" gradientUnits="userSpaceOnUse" y1="12.12" gradientTransform="matrix(.66667 0 0 .66667 4.2615 8.1231)" x2="30.432" x1="27.861">
   <stop id="stop2277-5-4" stop-color="#fcaf3e" offset="0"/>
   <stop id="stop2279-9-4" stop-color="#ce5c00" offset="1"/>
  </linearGradient>
  <radialGradient id="radialGradient736-9-2" gradientUnits="userSpaceOnUse" cy="128" cx="-138.84" gradientTransform="matrix(.21547 -.21552 .21683 .21688 31.918 -48.129)" r="9.1267">
   <stop id="stop4121-0-5-5-8-7" stop-color="#f9a9a9" offset="0"/>
   <stop id="stop4119-1-6-1-5-5" stop-color="#ab5f5f" offset="1"/>
  </radialGradient>
  <linearGradient id="linearGradient924" y2="134.25" gradientUnits="userSpaceOnUse" x2="-158.75" gradientTransform="matrix(.12725 -.12728 .12725 .12728 31.393 -23.627)" y1="115.94" x1="-158.75">
   <stop id="stop4101-1-8-4-5-5" stop-color="#ddd" offset="0"/>
   <stop id="stop4107-2-2-1-7-0" stop-color="#fff" offset=".34468"/>
   <stop id="stop4109-5-7-5-9-9" stop-color="#737373" offset=".72695"/>
   <stop id="stop4103-9-2-9-9-9" stop-color="#bbb" offset="1"/>
  </linearGradient>
  <clipPath id="clipPath5818" clipPathUnits="userSpaceOnUse">
   <rect id="rect5820" height="12.637" width="12.637" y="8.4096" x="18.614"/>
  </clipPath>
  <filter id="filter5858" height="1" width="1" color-interpolation-filters="sRGB" y="0" x="0">
   <feColorMatrix id="feColorMatrix5860" values="0" type="saturate"/>
  </filter>
  <pattern id="pattern2972-8-9" width="60.000004" patternUnits="userSpaceOnUse" patternTransform="matrix(-.53889 -1.0875 -1.0875 .53889 338.56 221.4)" height="47.05036">
   <image id="image2245-7-7" xlink:href="file:///home/jimmac/Desktop/wood.png" height="47.05" width="60" y="-5.1105e-15" x="1.9334e-7"/>
  </pattern>
  <pattern id="pattern756" xlink:href="#pattern2972-8-9" patternTransform="matrix(-0.444 -.89603 -.89603 0.444 102.07 310.32)"/>
  <pattern id="pattern2156" xlink:href="#pattern756" patternTransform="matrix(-0.444 -.89603 -.89603 0.444 100.28 311.21)"/>
  <pattern id="pattern2222" xlink:href="#pattern2156" patternTransform="matrix(-0.444 -.89603 -.89603 0.444 99.838 310.31)"/>
  <pattern id="pattern2288" xlink:href="#pattern2222" patternTransform="matrix(-0.444 -.89603 -.89603 0.444 99.395 309.42)"/>
  <pattern id="pattern2354" xlink:href="#pattern2288" patternTransform="matrix(-0.444 -.89603 -.89603 0.444 98.5 309.86)"/>
  <pattern id="pattern2420" xlink:href="#pattern2354" patternTransform="matrix(-0.444 -.89603 -.89603 0.444 97.606 310.3)"/>
  <mask id="mask3766" maskUnits="userSpaceOnUse">
   <g id="g3768">
    <rect id="rect3770" style="color:#000000;enable-background:accumulate" transform="translate(0,-200)" height="12" width="16" y="461" x="23" fill="#fff"/>
    <rect id="rect3772" style="color:#000000;enable-background:accumulate" height="4" width="6" y="269" x="29" fill="url(#linearGradient3774)"/>
   </g>
  </mask>
  <linearGradient id="linearGradient3774" y2="271" gradientUnits="userSpaceOnUse" y1="271" x2="30.25" x1="34.5">
   <stop id="stop4386" stop-color="#fff" offset="0"/>
   <stop id="stop4388" offset="1"/>
  </linearGradient>
  <linearGradient id="linearGradient53548" y2="134.25" gradientUnits="userSpaceOnUse" x2="-158.75" gradientTransform="matrix(.12083 -.12087 .12083 .12087 279.14 64.578)" y1="115.94" x1="-158.75">
   <stop id="stop4101-1-8-4-5-5-9" stop-color="#ddd" offset="0"/>
   <stop id="stop4107-2-2-1-7-0-3" stop-color="#fff" offset=".34468"/>
   <stop id="stop4109-5-7-5-9-9-1" stop-color="#737373" offset=".72695"/>
   <stop id="stop4103-9-2-9-9-9-1" stop-color="#bbb" offset="1"/>
  </linearGradient>
  <radialGradient id="radialGradient53551" gradientUnits="userSpaceOnUse" cy="128" cx="-138.84" gradientTransform="matrix(.20461 -.20466 .20590 .20595 279.63 41.311)" r="9.1267">
   <stop id="stop4121-0-5-5-8-7-8" stop-color="#f9a9a9" offset="0"/>
   <stop id="stop4119-1-6-1-5-5-7" stop-color="#ab5f5f" offset="1"/>
  </radialGradient>
  <linearGradient id="linearGradient53558" y2="14.691" gradientUnits="userSpaceOnUse" x2="30.432" gradientTransform="matrix(.63307 0 0 .63307 253.37 94.728)" y1="12.12" x1="27.861">
   <stop id="stop2277-5-4-9" stop-color="#fcaf3e" offset="0"/>
   <stop id="stop2279-9-4-1" stop-color="#ce5c00" offset="1"/>
  </linearGradient>
  <linearGradient id="linearGradient54054" y2="262.99" gradientUnits="userSpaceOnUse" x2="31" y1="269.77" x1="31">
   <stop id="stop4459" stop-color="#3a7404" offset="0"/>
   <stop id="stop4461" stop-color="#4e9a06" offset="1"/>
  </linearGradient>
  <linearGradient id="linearGradient54056" y2="263.06" gradientUnits="userSpaceOnUse" x2="31" y1="271.88" x1="31">
   <stop id="stop4465" stop-color="#8ae234" offset="0"/>
   <stop id="stop4467" stop-color="#73d216" offset=".30914"/>
   <stop id="stop4469" stop-color="#9fe759" offset=".56857"/>
   <stop id="stop4471" stop-color="#fff" offset="1"/>
  </linearGradient>
  <linearGradient id="linearGradient54080" y2="271.02" gradientUnits="userSpaceOnUse" x2="26.119" gradientTransform="matrix(-1,0,0,-1,306,420)" y1="263.58" x1="26.119">
   <stop id="stop3823" stop-color="#fff" offset="0"/>
   <stop id="stop3825" stop-color="#fff" stop-opacity="0" offset="1"/>
  </linearGradient>
 </defs>
 <metadata id="metadata4">
  <rdf:RDF>
   <cc:Work rdf:about="">
    <dc:format>image/svg+xml</dc:format>
    <dc:type rdf:resource="http://purl.org/dc/dcmitype/StillImage"/>
    <dc:creator>
     <cc:Agent>
      <dc:title>Jakub Steiner</dc:title>
     </cc:Agent>
    </dc:creator>
    <dc:source>http://jimmac.musichall.cz</dc:source>
    <cc:license rdf:resource=""/>
    <dc:title>Text Editor</dc:title>
    <dc:subject>
     <rdf:Bag>
      <rdf:li>text</rdf:li>
      <rdf:li>editor</rdf:li>
      <rdf:li>gedit</rdf:li>
     </rdf:Bag>
    </dc:subject>
    <dc:date/>
    <dc:rights>
     <cc:Agent>
      <dc:title/>
     </cc:Agent>
    </dc:rights>
    <dc:publisher>
     <cc:Agent>
      <dc:title/>
     </cc:Agent>
    </dc:publisher>
    <dc:identifier/>
    <dc:relation/>
    <dc:language/>
    <dc:coverage/>
    <dc:description/>
    <dc:contributor>
     <cc:Agent>
      <dc:title>Lapo Calamandrei</dc:title>
     </cc:Agent>
    </dc:contributor>
   </cc:Work>
   <cc:Work rdf:about="">
    <dc:format>image/svg+xml</dc:format>
    <dc:type rdf:resource="http://purl.org/dc/dcmitype/StillImage"/>
   </cc:Work>
  </rdf:RDF>
 </metadata>
 <g id="layer1">
  <g id="layer4">
   <g id="g771-4-4" opacity=".75" style="enable-background:new" clip-path="url(#clipPath5818)" transform="matrix(.94961 0 0 .94961 249.32 87.014)" filter="url(#filter5858)">
    <path id="path2334-5-8-2" opacity=".4" d="m29.527 16.557-10 2.9819-0.08333 0.04323-0.0625 0.05188-1.8333 1.9021 4.9583-0.56199 0.1875-0.01729 0.125-0.05188 6.7083-1.7888v-2.5592l-0.000004-0.000002z" fill-rule="evenodd" fill="url(#linearGradient6424-5-0)"/>
    <path id="path2273-6-2-0" stroke-linejoin="round" d="m19.961 17.191 6.4153-6.2764c1.45 0.23997 2.0565 1.1548 2.3333 2.3333l-6.4153 6.2764-2.827 0.2708 0.49364-2.6041z" fill-rule="evenodd" stroke="#ce5c00" stroke-width="1.0531" fill="url(#linearGradient6432-5-3)"/>
    <path id="path2298-0-7-3" d="m19.356 19.927 1.0476-2.6281s0.75413 0.15425 1.2147 0.61302c0.4606 0.45877 0.62767 1.2221 0.62767 1.2221l-2.89 0.79302z" fill-rule="evenodd" fill="#fff"/>
    <path id="path2313-6-7-7" opacity=".28235" d="m20.77 17.67 8.026-7.8096c0.56733 0.092866 0.7899 0.51418 1.0412 1.0409l-7.9739 7.8616-1.718 0.46841 0.62473-1.5614z" stroke="#fff" stroke-width="1.0531" fill="none"/>
    <path id="path6416-5-1" d="m22.108 19.711-3.6667 1 1.3333-3.3333" stroke="#e9b96e" stroke-linecap="round" stroke-width="1.0531" fill="none"/>
    <path id="path2283-1-5-3" d="m18.42 19.445-0.81777 2.0303 2.1149-0.59218c0.0018-0.02873 0-0.05541 0-0.0846 0-0.72381-0.58231-1.3173-1.2972-1.3536v0.000002z" fill-rule="evenodd"/>
    <path id="path4113-1-6-3-3" style="enable-background:new" d="m26.741 10.598c1.2335-0.33669 2.6127 1.1109 2.3201 2.3206l1.4764-1.4768c0.718-1.6593-0.761-2.9664-2.349-2.3509l-1.4463 1.5069z" stroke="#ef2929" stroke-width="1.0531" fill="url(#radialGradient736-9-2)"/>
    <path id="path4095-8-4-6-2" style="enable-background:new" d="m25.222 12.013c1.3023-0.35549 2.7585 1.1729 2.4495 2.4502l1.5588-1.5592c0.50738-1.0734-1.375-2.9177-2.4813-2.482l-1.527 1.5911z" stroke="#888a85" stroke-width="1.0531" fill="url(#linearGradient924)"/>
   </g>
   <rect id="rect3052-2" style="enable-background:accumulate" height="48" width="48" display="none" y="127.75" x="516.75" fill="#eeeeec"/>
   <rect id="rect3054-2" style="enable-background:accumulate" height="32" width="32" display="none" y="203.75" x="523.75" fill="#eeeeec"/>
   <rect id="rect3056-5" style="enable-background:accumulate" height="24" width="24" display="none" y="253.75" x="522.75" fill="#fff"/>
   <rect id="rect3058-2" style="enable-background:accumulate" height="22" width="22" display="none" y="254.75" x="523.75" fill="#eeeeec"/>
   <rect id="rect3060-2" style="enable-background:accumulate" height="16" width="16" display="none" y="296.75" x="523.75" fill="#eeeeec"/>
   <text id="text3062-7" style="enable-background:new" xml:space="preserve" font-size="18.301px" display="none" y="99.49086" x="241.65088" font-family="Bitstream Vera Sans" fill="#000000"><tspan id="tspan3064-1" y="99.49086" x="241.65088">actions</tspan></text>
   <text id="text3066-5" style="enable-background:new" line-height="125%" font-weight="bold" xml:space="preserve" font-size="18.301px" y="99.263618" x="412.72076" font-family="Droid Sans" display="none" fill="#000000"><tspan id="tspan3068-2" y="99.263618" x="412.72076">list-remove</tspan></text>
   <rect id="rect6282" style="enable-background:accumulate" height="256" width="256" display="none" y="-46.438" x="107.01" fill="#d3d7cf"/>
   <rect id="rect6284-7" style="enable-background:accumulate" height="48" width="48" display="none" y="-26.442" x="383.07" fill="#d3d7cf"/>
   <rect id="rect6592-5" style="enable-background:accumulate" height="32" width="32" display="none" y="49.558" x="390.01" fill="#d3d7cf"/>
   <rect id="rect5028" style="enable-background:accumulate" height="24" width="24" display="none" y="99.562" x="389.01" fill="#eeeeec"/>
   <rect id="rect6833-0" style="enable-background:accumulate" height="16" width="16" display="none" y="142.56" x="390.01" fill="#d3d7cf"/>
   <rect id="rect6749-6" style="enable-background:accumulate" height="22" width="22" display="none" y="100.62" x="390.01" fill="#d3d7cf"/>
   <text id="context-4" style="enable-background:new" xml:space="preserve" font-size="18.301px" display="none" y="-79.577713" x="118.88055" font-family="Bitstream Vera Sans" fill="#000000"><tspan id="tspan2716-7" y="-79.577713" x="118.88055">apps</tspan></text>
   <text id="icon-name-8" style="enable-background:new" line-height="125%" font-weight="bold" xml:space="preserve" font-size="18.301px" y="-79.577713" x="289.88055" font-family="Droid Sans" display="none" fill="#000000"><tspan id="tspan3023-4" y="-79.577713" x="289.88055">accessories-text-editor</tspan></text>
   <rect id="rect9766" opacity="0.48" style="enable-background:new" rx="0" ry="0" height="1" width="1" y="100.15" x="271.93" fill="#888a85"/>
   <path id="path2273-6-2-0-2" stroke-linejoin="round" d="m268.28 103.34 6.092-5.9601c1.377 0.22788 1.9528 1.0966 2.2158 2.2158l-6.092 5.9601-2.6845 0.25715 0.46877-2.4729z" fill-rule="evenodd" stroke="#ce5c00" fill="url(#linearGradient53558)"/>
   <path id="path2298-0-7-3-4" d="m267.7 105.94 0.9948-2.4957s0.71613 0.14648 1.1535 0.58213c0.43739 0.43565 0.59605 1.1605 0.59605 1.1605l-2.7444 0.75305z" fill-rule="evenodd" fill="#fff"/>
   <path id="path2313-6-7-7-7" opacity=".28235" d="m269.05 103.79 7.6216-7.4161c0.53874 0.0882 0.7501 0.48826 0.98875 0.98845l-7.5721 7.4655-1.6314 0.4448 0.59325-1.4827z" stroke="#fff" fill="none"/>
   <path id="path6416-5-1-4" d="m270.32 105.73-3.4819 0.94961 1.2661-3.1654" stroke="#e9b96e" stroke-linecap="round" fill="none"/>
   <path id="path2283-1-5-3-1" d="m266.82 105.48-0.77656 1.928 2.0084-0.56234c0.002-0.0273 0-0.0526 0-0.0803 0-0.68734-0.55296-1.2509-1.2318-1.2854z" fill-rule="evenodd"/>
   <path id="path4113-1-6-3-3-8" style="enable-background:new" d="m274.72 97.078c1.1713-0.31972 2.4811 1.0549 2.2032 2.2037l1.402-1.4023c0.6811-1.5756-0.72307-2.8168-2.2318-2.2323l-1.3734 1.431z" stroke="#ef2929" fill="url(#radialGradient53551)"/>
   <path id="path4095-8-4-6-2-5" style="enable-background:new" d="m273.28 98.422c1.2367-0.33757 2.6194 1.1138 2.3261 2.3268l1.4802-1.4807c0.48182-1.0193-1.3057-2.7706-2.3563-2.357l-1.45 1.5109z" stroke="#888a85" fill="url(#linearGradient53548)"/>
   <text id="text1017" font-size="105.26px" xml:space="preserve" stroke="#ef2929" stroke-linecap="round" fill="#2e3436" style="enable-background:new;block-progression:tb;text-indent:0;color:#000000;text-transform:none" opacity=".33495" font-family="RaveIn" line-height="125%" y="-30.438019" x="521.00995"><tspan id="tspan1019" font-size="12px" y="-30.438019" x="521.00995" fill="#950000"/></text>
   <rect id="rect2975" transform="matrix(-0.444 -.89603 -.89603 0.444 0 0)" height="0" width="0" y="198.38" x="127.75" fill="url(#pattern53472)"/>
   <rect id="rect14614" transform="matrix(-.94754 -.31963 -.31963 .94754 0 0)" height="0" width="0" y="6.9926" x="-161.78" fill="url(#pattern52282)"/>
   <rect id="rect6284" style="enable-background:accumulate" height="48" width="48" display="none" y="127.75" x="116.75" fill="#eeeeec"/>
   <rect id="rect6592" style="enable-background:accumulate" height="32" width="32" display="none" y="203.75" x="123.75" fill="#eeeeec"/>
   <rect id="rect6749-1-1" style="enable-background:accumulate" height="24" width="24" display="none" y="253.75" x="122.75" fill="#fff"/>
   <rect id="rect6749" style="enable-background:accumulate" height="22" width="22" display="none" y="254.75" x="123.75" fill="#eeeeec"/>
   <rect id="rect6833" style="enable-background:accumulate" height="16" width="16" display="none" y="296.75" x="123.75" fill="#eeeeec"/>
   <text id="context" style="enable-background:new" xml:space="preserve" font-size="18.301px" display="none" y="99.49086" x="-158.34912" font-family="Bitstream Vera Sans" fill="#000000"><tspan id="tspan2716" x="-158.34912" y="99.49086">actions</tspan></text>
   <text id="icon-name" style="enable-background:new" line-height="125%" font-weight="bold" xml:space="preserve" font-size="18.301px" y="99.263618" x="12.720734" font-family="Droid Sans" display="none" fill="#000000"><tspan id="tspan3023" x="12.720734" y="99.263618">list-add</tspan></text>
   <rect id="rect4235" style="enable-background:accumulate" height="48" width="48" display="none" y="151" x="434.75" fill="#eeeeec"/>
   <rect id="rect4237" style="enable-background:accumulate" height="32" width="32" display="none" y="217" x="441.75" fill="#eeeeec"/>
   <rect id="rect4239" style="enable-background:accumulate" height="22" width="22" display="none" y="268" x="441.75" fill="#eeeeec"/>
   <rect id="rect4241" style="enable-background:accumulate" height="16" width="16" display="none" y="310" x="441.75" fill="#eeeeec"/>
   <text id="text4243" style="enable-background:new" xml:space="preserve" font-size="18.301px" display="none" y="192.5136" x="709.7207" font-family="Bitstream Vera Sans" fill="#000000"><tspan id="tspan4245" y="192.5136" x="709.7207">actions</tspan></text>
   <text id="text4247" style="enable-background:new" line-height="125%" font-weight="bold" xml:space="preserve" font-size="18.301px" y="192.5136" x="790.72089" font-family="Droid Sans" display="none" fill="#000000"><tspan id="tspan4249" y="192.5136" x="790.72089">edit-redo</tspan></text>
   <rect id="rect4251" style="enable-background:accumulate" height="24" width="24" display="none" y="267" x="440.75" fill="#eeeeec"/>
   <g id="g54085" stroke-linecap="round" fill="none">
    <g id="g4303" mask="url(#mask3766)" transform="matrix(-1 0 0 -1 306 420)">
     <path id="path4305" style="color:#000000;enable-background:accumulate" d="m27.5 262.5-3 3 3 3m-3-3h10c1.6569 0 3 1.3432 3 3 0 1.6569-1.3431 3-3 3h-4" stroke="url(#linearGradient54054)" stroke-width="3"/>
     <path id="path4307" style="color:#000000;enable-background:accumulate" d="m27.5 262.5-3 3 3 3m-3-3h10c1.6569 0 3 1.3431 3 3s-1.3431 3-3 3h-4" stroke="url(#linearGradient54056)"/>
    </g>
    <path id="path4309" opacity=".6" style="color:#000000;enable-background:accumulate" d="m278.5 157.5 3-3-3-3" stroke="url(#linearGradient54080)"/>
   </g>
   <rect id="rect54076" opacity="0" height="12" width="16" y="147" x="267"/>
   <g id="layer7" transform="translate(358.75 -249)" display="none" fill="#eeeeec">
    <rect id="rect11612" style="enable-background:new" height="256" width="256" display="inline" y="130" x="10"/>
    <rect id="rect11612-3" style="enable-background:new" height="256" width="256" display="inline" y="130" x="280"/>
   </g>
  </g>
  <rect id="rect3052" style="enable-background:accumulate" height="48" width="48" display="none" y="112" x="646.5" fill="#eeeeec"/>
  <rect id="rect3054" style="enable-background:accumulate" height="32" width="32" display="none" y="188" x="653.5" fill="#eeeeec"/>
  <rect id="rect3056" style="enable-background:accumulate" height="24" width="24" display="none" y="238" x="652.5" fill="#fff"/>
  <rect id="rect3058" style="enable-background:accumulate" height="22" width="22" display="none" y="239" x="653.5" fill="#eeeeec"/>
  <rect id="rect3060" style="enable-background:accumulate" height="16" width="16" display="none" y="281" x="653.5" fill="#eeeeec"/>
  <text id="text3062" style="enable-background:new" xml:space="preserve" font-size="18.301px" display="none" y="83.74086" x="371.40088" font-family="Bitstream Vera Sans" fill="#000000"><tspan id="tspan3064" y="83.74086" x="371.40088">actions</tspan></text>
  <text id="text3066" style="enable-background:new" line-height="125%" font-weight="bold" xml:space="preserve" font-size="18.301px" y="83.513618" x="542.47076" font-family="Droid Sans" display="none" fill="#000000"><tspan id="tspan3068" y="83.513618" x="542.47076">list-remove</tspan></text>
  <g id="g5826" opacity=".75" stroke-linejoin="round" transform="translate(-93,-110)" stroke-linecap="round">
   <path id="rect3969-3" style="color:#000000;enable-background:accumulate" d="m361.5 242.5c-0.554 0-1 0.446-1 1v1c0 0.554 0.446 1 1 1h9c0.554 0 1-0.446 1-1v-1c0-0.554-0.446-1-1-1h-9z" display="block" stroke="#a40000" fill="#ef2929"/>
   <path id="path4046-1" opacity=".3" style="color:#000000;enable-background:accumulate" d="m370.5 243.5h-9v1" display="block" stroke="#fff" fill="none"/>
  </g>
  <rect id="rect6284-2" style="enable-background:accumulate" height="48" width="48" display="none" y="112" x="246.5" fill="#eeeeec"/>
  <rect id="rect6592-3" style="enable-background:accumulate" height="32" width="32" display="none" y="188" x="253.5" fill="#eeeeec"/>
  <rect id="rect6749-1" style="enable-background:accumulate" height="24" width="24" display="none" y="238" x="252.5" fill="#fff"/>
  <rect id="rect6749-9" style="enable-background:accumulate" height="22" width="22" display="none" y="239" x="253.5" fill="#eeeeec"/>
  <rect id="rect6833-9" style="enable-background:accumulate" height="16" width="16" display="none" y="281" x="253.5" fill="#eeeeec"/>
  <text id="context-7" style="enable-background:new" xml:space="preserve" font-size="18.301px" display="none" y="83.74086" x="-28.599115" font-family="Bitstream Vera Sans" fill="#000000"><tspan id="tspan2716-0" x="-28.599115" y="83.74086">actions</tspan></text>
  <text id="icon-name-3" style="enable-background:new" line-height="125%" font-weight="bold" xml:space="preserve" font-size="18.301px" y="83.513618" x="142.47073" font-family="Droid Sans" display="none" fill="#000000"><tspan id="tspan3023-9" x="142.47073" y="83.513618">list-add</tspan></text>
  <g id="g5822" opacity=".75" stroke-linejoin="round" transform="translate(-75,-125)" stroke-linecap="round">
   <path id="rect3969" style="color:#000000;enable-background:accumulate" d="m347.5 238.5c-0.554 0-1 0.446-1 1v3h-3c-0.554 0-1 0.446-1 1v1c0 0.554 0.446 1 1 1h3v3c0 0.554 0.446 1 1 1h1c0.554 0 1-0.446 1-1v-3h3c0.554 0 1-0.446 1-1v-1c0-0.554-0.446-1-1-1h-3v-3c0-0.554-0.446-1-1-1h-1z" display="block" stroke="#3e7a05" fill="#6ebd21"/>
   <path id="path4046-6" opacity=".3" style="color:#000000;enable-background:accumulate" d="m348.5 239.5h-1v3c-0.005 0.52235-0.47765 0.99549-1 1h-3v1m9-1h-3m-2 2v3" display="block" stroke="#fff" fill="none"/>
  </g>
 </g>
</svg>
