<?xml version="1.0" encoding="UTF-8" standalone="no"?>
<!-- Created with Inkscape (http://www.inkscape.org/) -->

<svg
   xmlns:dc="http://purl.org/dc/elements/1.1/"
   xmlns:cc="http://creativecommons.org/ns#"
   xmlns:rdf="http://www.w3.org/1999/02/22-rdf-syntax-ns#"
   xmlns:svg="http://www.w3.org/2000/svg"
   xmlns="http://www.w3.org/2000/svg"
   xmlns:sodipodi="http://sodipodi.sourceforge.net/DTD/sodipodi-0.dtd"
   xmlns:inkscape="http://www.inkscape.org/namespaces/inkscape"
   width="744.09448819"
   height="1052.3622047"
   id="svg2"
   version="1.1"
   inkscape:version="0.48.0 r9654"
   sodipodi:docname="drawing-1.svg.2012_02_21_21_26_37.0.svg">
  <defs
     id="defs4" />
  <sodipodi:namedview
     id="base"
     pagecolor="#ffffff"
     bordercolor="#666666"
     borderopacity="1.0"
     inkscape:pageopacity="0.0"
     inkscape:pageshadow="2"
     inkscape:zoom="0.5"
     inkscape:cx="293.93245"
     inkscape:cy="451.01426"
     inkscape:document-units="px"
     inkscape:current-layer="layer1"
     showgrid="false"
     inkscape:window-width="1256"
     inkscape:window-height="744"
     inkscape:window-x="0"
     inkscape:window-y="0"
     inkscape:window-maximized="0"
     inkscape:snap-nodes="false"
     inkscape:snap-bbox="true">
    <inkscape:grid
       type="xygrid"
       id="grid4845" />
  </sodipodi:namedview>
  <metadata
     id="metadata7">
    <rdf:RDF>
      <cc:Work
         rdf:about="">
        <dc:format>image/svg+xml</dc:format>
        <dc:type
           rdf:resource="http://purl.org/dc/dcmitype/StillImage" />
        <dc:title></dc:title>
      </cc:Work>
    </rdf:RDF>
  </metadata>
  <g
     inkscape:label="Layer 1"
     inkscape:groupmode="layer"
     id="layer1">
    <rect
       style="fill:#ededed;fill-opacity:1;stroke:none"
       id="rect2991"
       width="48"
       height="48"
       x="216.5"
       y="96.862183"
       inkscape:export-filename="/Users/hbons/Code/SparkleShare/data/icons/avatar-9.png"
       inkscape:export-xdpi="90"
       inkscape:export-ydpi="90" />
    <rect
       y="96.862183"
       x="166.5"
       height="48"
       width="48"
       id="rect4811"
       style="fill:#ededed;fill-opacity:1;stroke:none"
       inkscape:export-filename="/Users/hbons/Code/SparkleShare/data/icons/avatar-10.png"
       inkscape:export-xdpi="90"
       inkscape:export-ydpi="90" />
    <rect
       style="fill:#ededed;fill-opacity:1;stroke:none"
       id="rect4813"
       width="48"
       height="48"
       x="116.5"
       y="96.862183"
       inkscape:export-filename="/Users/hbons/Code/SparkleShare/data/icons/avatar-11.png"
       inkscape:export-xdpi="90"
       inkscape:export-ydpi="90" />
    <rect
       y="96.862183"
       x="66.5"
       height="48"
       width="48"
       id="rect4815"
       style="fill:#ededed;fill-opacity:1;stroke:none" />
    <rect
       style="fill:#ededed;fill-opacity:1;stroke:none"
       id="rect4817"
       width="48"
       height="48"
       x="266.5"
       y="96.862183"
       inkscape:export-filename="/Users/hbons/Code/SparkleShare/data/icons/avatar-8.png"
       inkscape:export-xdpi="90"
       inkscape:export-ydpi="90" />
    <rect
       y="96.862183"
       x="321.5"
       height="48"
       width="48"
       id="rect4819"
       style="fill:#ededed;fill-opacity:1;stroke:none"
       inkscape:export-filename="/Users/hbons/Code/SparkleShare/data/icons/avatar-7.png"
       inkscape:export-xdpi="90"
       inkscape:export-ydpi="90" />
    <rect
       style="fill:#ededed;fill-opacity:1;stroke:none"
       id="rect4821"
       width="48"
       height="48"
       x="376.5"
       y="96.862183"
       inkscape:export-filename="/Users/hbons/Code/SparkleShare/data/icons/avatar-6.png"
       inkscape:export-xdpi="90"
       inkscape:export-ydpi="90" />
    <rect
       style="fill:#ededed;fill-opacity:1;stroke:none"
       id="rect4825"
       width="48"
       height="48"
       x="476.5"
       y="96.862183"
       inkscape:export-filename="/Users/hbons/Code/SparkleShare/data/icons/avatar-4.png"
       inkscape:export-xdpi="90"
       inkscape:export-ydpi="90" />
    <rect
       y="96.862183"
       x="531.5"
       height="48"
       width="48"
       id="rect4827"
       style="fill:#ededed;fill-opacity:1;stroke:none"
       inkscape:export-filename="/Users/hbons/Code/SparkleShare/data/icons/avatar-3.png"
       inkscape:export-xdpi="90"
       inkscape:export-ydpi="90" />
    <rect
       style="fill:#ededed;fill-opacity:1;stroke:none"
       id="rect4829"
       width="48"
       height="48"
       x="586.5"
       y="96.862183"
       inkscape:export-filename="/Users/hbons/Code/SparkleShare/data/icons/avatar-2.png"
       inkscape:export-xdpi="90"
       inkscape:export-ydpi="90" />
    <rect
       y="96.862183"
       x="641.5"
       height="48"
       width="48"
       id="rect4831"
       style="fill:#ededed;fill-opacity:1;stroke:none"
       inkscape:export-filename="/Users/hbons/Code/SparkleShare/data/icons/avatar-1.png"
       inkscape:export-xdpi="90"
       inkscape:export-ydpi="90" />
    <g
       id="g4795"
       transform="translate(81.110528,-463.5)"
       style="fill:#ffffff;fill-opacity:1">
      <path
         sodipodi:type="arc"
         style="fill:#ffffff;fill-opacity:1;stroke:none"
         id="path4669"
         sodipodi:cx="355.67471"
         sodipodi:cy="458.92282"
         sodipodi:rx="8.6620579"
         sodipodi:ry="8.6620579"
         d="m 364.33677,458.92282 c 0,4.78392 -3.87813,8.66206 -8.66206,8.66206 -4.78392,0 -8.66205,-3.87814 -8.66205,-8.66206 0,-4.78392 3.87813,-8.66206 8.66205,-8.66206 4.78393,0 8.66206,3.87814 8.66206,8.66206 z"
         transform="matrix(1.125679,0,0,1.125679,128.51617,67.325585)" />
      <rect
         style="fill:#ffffff;fill-opacity:1;stroke:none"
         id="rect4671"
         width="31.384169"
         height="28.585962"
         x="513.69739"
         y="595.06921"
         rx="11.508705"
         ry="11.508705" />
      <g
         style="fill:#ffffff;fill-opacity:1"
         transform="matrix(1.6967093,0,0,1.6967093,-190.21941,-314.59627)"
         id="g4681">
        <path
           sodipodi:type="arc"
           style="fill:#ffffff;fill-opacity:1;stroke:none"
           id="path4673"
           sodipodi:cx="355.67471"
           sodipodi:cy="458.92282"
           sodipodi:rx="8.6620579"
           sodipodi:ry="8.6620579"
           d="m 364.33677,458.92282 c 0,4.78392 -3.87813,8.66206 -8.66206,8.66206 -4.78392,0 -8.66205,-3.87814 -8.66205,-8.66206 0,-4.78392 3.87813,-8.66206 8.66205,-8.66206 4.78393,0 8.66206,3.87814 8.66206,8.66206 z"
           transform="matrix(0.33194096,0,0,0.33194096,305.76396,368.83335)" />
        <path
           transform="matrix(0.33194096,0,0,0.33194096,301.01378,368.83335)"
           d="m 364.33677,458.92282 c 0,4.78392 -3.87813,8.66206 -8.66206,8.66206 -4.78392,0 -8.66205,-3.87814 -8.66205,-8.66206 0,-4.78392 3.87813,-8.66206 8.66205,-8.66206 4.78393,0 8.66206,3.87814 8.66206,8.66206 z"
           sodipodi:ry="8.6620579"
           sodipodi:rx="8.6620579"
           sodipodi:cy="458.92282"
           sodipodi:cx="355.67471"
           id="path4675"
           style="fill:#ffffff;fill-opacity:1;stroke:none"
           sodipodi:type="arc" />
        <path
           sodipodi:type="arc"
           style="fill:#ffffff;fill-opacity:1;stroke:none"
           id="path4677"
           sodipodi:cx="355.67471"
           sodipodi:cy="458.92282"
           sodipodi:rx="8.6620579"
           sodipodi:ry="8.6620579"
           d="m 364.33677,458.92282 c 0,4.78392 -3.87813,8.66206 -8.66206,8.66206 -4.78392,0 -8.66205,-3.87814 -8.66205,-8.66206 0,-4.78392 3.87813,-8.66206 8.66205,-8.66206 4.78393,0 8.66206,3.87814 8.66206,8.66206 z"
           transform="matrix(0.33194096,0,0,0.33194096,310.51413,368.83335)" />
      </g>
      <rect
         y="569.68445"
         x="519.21381"
         height="14.71875"
         width="19.3125"
         id="rect4679"
         style="fill:#ffffff;fill-opacity:1;stroke:none" />
    </g>
    <g
       id="g4804"
       transform="translate(98.610528,-463.5)"
       style="fill:#ffffff;fill-opacity:1">
      <path
         transform="matrix(1.125679,0,0,1.125679,166.01617,67.325585)"
         d="m 364.33677,458.92282 c 0,4.78392 -3.87813,8.66206 -8.66206,8.66206 -4.78392,0 -8.66205,-3.87814 -8.66205,-8.66206 0,-4.78392 3.87813,-8.66206 8.66205,-8.66206 4.78393,0 8.66206,3.87814 8.66206,8.66206 z"
         sodipodi:ry="8.6620579"
         sodipodi:rx="8.6620579"
         sodipodi:cy="458.92282"
         sodipodi:cx="355.67471"
         id="path4705"
         style="fill:#ffffff;fill-opacity:1;stroke:none"
         sodipodi:type="arc" />
      <rect
         ry="11.508705"
         rx="11.508705"
         y="595.06921"
         x="551.19739"
         height="28.585962"
         width="31.384169"
         id="rect4707"
         style="fill:#ffffff;fill-opacity:1;stroke:none" />
      <rect
         style="fill:#ffffff;fill-opacity:1;stroke:none"
         id="rect4717"
         width="19.3125"
         height="20.022051"
         x="556.71381"
         y="564.38116" />
      <rect
         y="577.89685"
         x="553.00146"
         height="1.990828"
         width="26.737122"
         id="rect4719"
         style="fill:#ffffff;fill-opacity:1;stroke:none" />
    </g>
    <rect
       y="96.862183"
       x="426.5"
       height="48"
       width="48"
       id="rect4862"
       style="fill:#ededed;fill-opacity:1;stroke:none"
       inkscape:export-filename="/Users/hbons/Code/SparkleShare/data/icons/avatar-5.png"
       inkscape:export-xdpi="90"
       inkscape:export-ydpi="90" />
    <g
       id="g4758"
       transform="translate(33.139669,-463.98928)"
       style="fill:#ffffff;fill-opacity:1">
      <path
         sodipodi:type="arc"
         style="fill:#ffffff;fill-opacity:1;stroke:none"
         id="path4808"
         sodipodi:cx="355.67471"
         sodipodi:cy="458.92282"
         sodipodi:rx="8.6620579"
         sodipodi:ry="8.6620579"
         d="m 364.33677,458.92282 c 0,4.78392 -3.87813,8.66206 -8.66206,8.66206 -4.78392,0 -8.66205,-3.87814 -8.66205,-8.66206 0,-4.78392 3.87813,-8.66206 8.66205,-8.66206 4.78393,0 8.66206,3.87814 8.66206,8.66206 z"
         transform="matrix(1.125679,0,0,1.125679,16.01617,67.325585)" />
      <rect
         style="fill:#ffffff;fill-opacity:1;stroke:none"
         id="rect4810"
         width="31.384169"
         height="28.585962"
         x="401.19742"
         y="595.06921"
         rx="11.508705"
         ry="11.508705" />
      <rect
         ry="0.76949799"
         rx="0.55169797"
         y="578.56921"
         x="405.0878"
         height="4.0581961"
         width="22.501141"
         id="rect4818"
         style="fill:#ffffff;fill-opacity:1;stroke:none" />
      <path
         transform="matrix(1.125679,0,0,1.125679,16.01617,62.825585)"
         d="m 364.33677,458.92282 c 0,4.78392 -3.87813,8.66206 -8.66206,8.66206 -4.78392,0 -8.66205,-3.87814 -8.66205,-8.66206 0,-4.78392 3.87813,-8.66206 8.66205,-8.66206 4.78393,0 8.66206,3.87814 8.66206,8.66206 z"
         sodipodi:ry="8.6620579"
         sodipodi:rx="8.6620579"
         sodipodi:cy="458.92282"
         sodipodi:cx="355.67471"
         id="path4820"
         style="fill:#ffffff;fill-opacity:1;stroke:none"
         sodipodi:type="arc" />
      <path
         transform="matrix(0.31445451,0,0,0.31445451,304.40392,423.58816)"
         d="m 364.33677,458.92282 c 0,4.78392 -3.87813,8.66206 -8.66206,8.66206 -4.78392,0 -8.66205,-3.87814 -8.66205,-8.66206 0,-4.78392 3.87813,-8.66206 8.66205,-8.66206 4.78393,0 8.66206,3.87814 8.66206,8.66206 z"
         sodipodi:ry="8.6620579"
         sodipodi:rx="8.6620579"
         sodipodi:cy="458.92282"
         sodipodi:cx="355.67471"
         id="path4822"
         style="fill:#ffffff;fill-opacity:1;stroke:none"
         sodipodi:type="arc" />
    </g>
    <g
       id="g4750"
       transform="translate(21.110497,-463.5)">
      <path
         transform="matrix(1.125679,0,0,1.125679,-21.507206,67.325585)"
         d="m 364.33677,458.92282 c 0,4.78392 -3.87813,8.66206 -8.66206,8.66206 -4.78392,0 -8.66205,-3.87814 -8.66205,-8.66206 0,-4.78392 3.87813,-8.66206 8.66205,-8.66206 4.78393,0 8.66206,3.87814 8.66206,8.66206 z"
         sodipodi:ry="8.6620579"
         sodipodi:rx="8.6620579"
         sodipodi:cy="458.92282"
         sodipodi:cx="355.67471"
         id="path4824"
         style="fill:#ffffff;fill-opacity:1;stroke:none"
         sodipodi:type="arc" />
      <rect
         ry="11.508705"
         rx="11.508705"
         y="595.06921"
         x="363.69742"
         height="28.585962"
         width="31.384169"
         id="rect4826"
         style="fill:#ffffff;fill-opacity:1;stroke:none" />
      <rect
         style="fill:#ffffff;fill-opacity:1;stroke:none"
         id="rect4828"
         width="4.7350821"
         height="7.6379242"
         x="387.60385"
         y="580.06921"
         rx="2.3675411"
         ry="2.3675411" />
      <rect
         ry="2.3675411"
         rx="2.3675411"
         y="580.06921"
         x="365.10385"
         height="7.6379242"
         width="4.7350821"
         id="rect4834"
         style="fill:#ffffff;fill-opacity:1;stroke:none" />
      <path
         style="font-size:medium;font-style:normal;font-variant:normal;font-weight:normal;font-stretch:normal;text-indent:0;text-align:start;text-decoration:none;line-height:normal;letter-spacing:normal;word-spacing:normal;text-transform:none;direction:ltr;block-progression:tb;writing-mode:lr-tb;text-anchor:start;baseline-shift:baseline;color:#000000;fill:#ffffff;fill-opacity:1;stroke:none;stroke-width:1;marker:none;visibility:visible;display:inline;overflow:visible;enable-background:accumulate;font-family:Sans;-inkscape-font-specification:Sans"
         d="m 368.53836,582.458 c -0.55072,-1.76231 -0.65891,-3.63018 -0.28125,-5.4375 1.22115,-5.84407 6.99968,-9.61178 12.84375,-8.39062 5.84407,1.22115 9.5649,6.9528 8.34375,12.79687 l -1.45313,-0.28125 c 1.05534,-5.05056 -2.16819,-10.00716 -7.21875,-11.0625 -5.05055,-1.05534 -9.96028,2.16819 -11.01562,7.21875 -0.32533,1.55697 -0.28693,3.16931 0.1875,4.6875 l -1.40625,0.46875 z"
         id="path4836"
         inkscape:connector-curvature="0" />
      <rect
         y="580.08246"
         x="367.0675"
         height="7.5571737"
         width="22.936775"
         id="rect4838"
         style="fill:#ffffff;fill-opacity:1;stroke:none" />
    </g>
    <g
       id="g4745"
       transform="translate(3.610497,-463.5)"
       style="fill:#ffffff;fill-opacity:1">
      <path
         sodipodi:type="arc"
         style="fill:#ffffff;fill-opacity:1;stroke:none"
         id="path4840"
         sodipodi:cx="355.67471"
         sodipodi:cy="458.92282"
         sodipodi:rx="8.6620579"
         sodipodi:ry="8.6620579"
         d="m 364.33677,458.92282 c 0,4.78392 -3.87813,8.66206 -8.66206,8.66206 -4.78392,0 -8.66205,-3.87814 -8.66205,-8.66206 0,-4.78392 3.87813,-8.66206 8.66205,-8.66206 4.78393,0 8.66206,3.87814 8.66206,8.66206 z"
         transform="matrix(1.125679,0,0,1.125679,-59.007206,67.325585)" />
      <rect
         style="fill:#ffffff;fill-opacity:1;stroke:none"
         id="rect4842"
         width="31.384169"
         height="28.585962"
         x="326.19742"
         y="595.06921"
         rx="11.508705"
         ry="11.508705" />
      <path
         sodipodi:nodetypes="cccc"
         inkscape:connector-curvature="0"
         id="rect4848"
         d="m 341.7859,567.33246 15.4059,13.05718 -30.81178,0 z"
         style="fill:#ffffff;fill-opacity:1;stroke:none" />
    </g>
    <g
       id="g4739"
       transform="translate(-13.8895,-463.5)"
       style="fill:#ffffff;fill-opacity:1">
      <path
         sodipodi:nodetypes="sssss"
         inkscape:connector-curvature="0"
         id="path4859"
         d="m 313.61904,583.92537 c 0,5.38515 -4.36552,9.7507 -9.75069,9.7507 -5.38516,0 -9.75069,-4.36555 -9.75069,-9.7507 0,-5.38516 4.36553,-18.7507 9.75069,-18.7507 5.38517,0 9.75069,13.36554 9.75069,18.7507 z"
         style="fill:#ffffff;fill-opacity:1;stroke:none" />
      <rect
         ry="11.508705"
         rx="11.508705"
         y="595.06921"
         x="288.69742"
         height="28.585962"
         width="31.384169"
         id="rect4861"
         style="fill:#ffffff;fill-opacity:1;stroke:none" />
      <rect
         y="-581.63733"
         x="-314.92755"
         height="1.990828"
         width="22.494493"
         id="rect4865"
         style="fill:#ffffff;fill-opacity:1;stroke:none"
         transform="scale(-1,-1)" />
      <path
         sodipodi:type="arc"
         style="fill:#ffffff;fill-opacity:1;stroke:none"
         id="path4867"
         sodipodi:cx="355.67471"
         sodipodi:cy="458.92282"
         sodipodi:rx="8.6620579"
         sodipodi:ry="8.6620579"
         d="m 364.33677,458.92282 c 0,4.78392 -3.87813,8.66206 -8.66206,8.66206 -4.78392,0 -8.66205,-3.87814 -8.66205,-8.66206 0,-4.78392 3.87813,-8.66206 8.66205,-8.66206 4.78393,0 8.66206,3.87814 8.66206,8.66206 z"
         transform="matrix(0.13078104,0,0,0.60667722,264.64095,292.01174)" />
    </g>
    <g
       id="g4734"
       transform="translate(-26.3895,-463.5)"
       style="fill:#ffffff;fill-opacity:1">
      <rect
         style="fill:#ffffff;fill-opacity:1;stroke:none"
         id="rect4874"
         width="31.384169"
         height="28.585962"
         x="251.19742"
         y="595.06921"
         rx="11.508705"
         ry="11.508705" />
      <path
         transform="matrix(1.125679,0,0,1.125679,-134.00721,67.325585)"
         d="m 364.33677,458.92282 c 0,4.78392 -3.87813,8.66206 -8.66206,8.66206 -4.78392,0 -8.66205,-3.87814 -8.66205,-8.66206 0,-4.78392 3.87813,-8.66206 8.66205,-8.66206 4.78393,0 8.66206,3.87814 8.66206,8.66206 z"
         sodipodi:ry="8.6620579"
         sodipodi:rx="8.6620579"
         sodipodi:cy="458.92282"
         sodipodi:cx="355.67471"
         id="path4880"
         style="fill:#ffffff;fill-opacity:1;stroke:none"
         sodipodi:type="arc" />
      <rect
         transform="scale(-1,-1)"
         style="fill:#ffffff;fill-opacity:1;stroke:none"
         id="rect4885"
         width="23.697685"
         height="13.60479"
         x="-277.9678"
         y="-579.57483"
         rx="2.4738464"
         ry="2.4738464" />
    </g>
    <g
       id="g4779"
       transform="translate(46.110497,-463.5)"
       style="fill:#ffffff;fill-opacity:1">
      <path
         transform="matrix(1.125679,0,0,1.125679,53.51617,67.325585)"
         d="m 364.33677,458.92282 c 0,4.78392 -3.87813,8.66206 -8.66206,8.66206 -4.78392,0 -8.66205,-3.87814 -8.66205,-8.66206 0,-4.78392 3.87813,-8.66206 8.66205,-8.66206 4.78393,0 8.66206,3.87814 8.66206,8.66206 z"
         sodipodi:ry="8.6620579"
         sodipodi:rx="8.6620579"
         sodipodi:cy="458.92282"
         sodipodi:cx="355.67471"
         id="path4777"
         style="fill:#ffffff;fill-opacity:1;stroke:none"
         sodipodi:type="arc" />
      <rect
         ry="11.508705"
         rx="11.508705"
         y="595.06921"
         x="438.69742"
         height="28.585962"
         width="31.384169"
         id="rect4779"
         style="fill:#ffffff;fill-opacity:1;stroke:none" />
      <path
         sodipodi:nodetypes="cccc"
         inkscape:connector-curvature="0"
         id="rect4801"
         d="m 453.77933,564.5282 9.46571,17.56287 -18.93141,0 z"
         style="fill:#ffffff;fill-opacity:1;stroke:none" />
      <path
         style="fill:#ffffff;fill-opacity:1;stroke:none"
         d="m 444.02933,569.0282 19.21571,13.06287 -18.93141,0 z"
         id="path4804"
         inkscape:connector-curvature="0"
         sodipodi:nodetypes="cccc" />
      <path
         sodipodi:nodetypes="cccc"
         inkscape:connector-curvature="0"
         id="path4806"
         d="m 463.52933,569.0282 -19.2157,13.06287 18.93141,0 z"
         style="fill:#ffffff;fill-opacity:1;stroke:none" />
    </g>
    <path
       sodipodi:type="arc"
       style="fill:#ffffff;fill-opacity:1;stroke:none"
       id="path4721"
       sodipodi:cx="355.67471"
       sodipodi:cy="458.92282"
       sodipodi:rx="8.6620579"
       sodipodi:ry="8.6620579"
       d="m 364.33677,458.92282 a 8.6620579,8.6620579 0 1 1 -17.32411,0 8.6620579,8.6620579 0 1 1 17.32411,0 z"
       transform="matrix(1.125679,0,0,1.125679,155.02631,-396.17441)" />
    <rect
       style="fill:#ffffff;fill-opacity:1;stroke:none"
       id="rect4723"
       width="31.384169"
       height="28.585962"
       x="540.20758"
       y="131.56921"
       rx="11.508705"
       ry="11.508705" />
    <rect
       y="108.6593"
       x="545.72394"
       height="12.243876"
       width="19.3125"
       id="rect4733"
       style="fill:#ffffff;fill-opacity:1;stroke:none" />
    <path
       inkscape:connector-curvature="0"
       style="fill:#ffffff;fill-opacity:1;stroke:none"
       d="m 547.13018,101.90681 c -5.38516,0 -9.75,4.36483 -9.75,9.75 0,1.33069 0.31424,2.59431 0.79688,3.75 1.47091,-3.52043 4.89925,-6 8.95312,-6 4.05387,0 7.52909,2.47957 9,6 0.48264,-1.15569 0.75,-2.41931 0.75,-3.75 0,-5.38517 -4.36484,-9.75 -9.75,-9.75 z"
       id="path4747" />
    <path
       inkscape:connector-curvature="0"
       style="fill:#ffffff;fill-opacity:1;stroke:none"
       d="m 564.38018,101.90681 c -5.38516,0 -9.75,4.36483 -9.75,9.75 0,1.33069 0.31424,2.59431 0.79688,3.75 1.47091,-3.52043 4.89925,-6 8.95312,-6 4.05387,0 7.52909,2.47957 9,6 0.48264,-1.15569 0.75,-2.41931 0.75,-3.75 0,-5.38517 -4.36484,-9.75 -9.75,-9.75 z"
       id="path4749" />
    <path
       sodipodi:type="arc"
       style="fill:#ffffff;fill-opacity:1;stroke:none"
       id="path4763"
       sodipodi:cx="355.67471"
       sodipodi:cy="458.92282"
       sodipodi:rx="8.6620579"
       sodipodi:ry="8.6620579"
       d="m 364.33677,458.92282 a 8.6620579,8.6620579 0 1 1 -17.32411,0 8.6620579,8.6620579 0 1 1 17.32411,0 z"
       transform="matrix(0.31445451,0,0,0.31445451,461.28148,-26.16184)" />
    <path
       transform="matrix(0.31445451,0,0,0.31445451,426.03148,-26.16184)"
       d="m 364.33677,458.92282 a 8.6620579,8.6620579 0 1 1 -17.32411,0 8.6620579,8.6620579 0 1 1 17.32411,0 z"
       sodipodi:ry="8.6620579"
       sodipodi:rx="8.6620579"
       sodipodi:cy="458.92282"
       sodipodi:cx="355.67471"
       id="path3812"
       style="fill:#ffffff;fill-opacity:1;stroke:none"
       sodipodi:type="arc" />
    <g
       id="g4728"
       transform="translate(-38.8895,-463.5)"
       style="fill:#ffffff;fill-opacity:1">
      <rect
         ry="11.508705"
         rx="11.508705"
         y="595.06921"
         x="213.69742"
         height="28.585962"
         width="31.384169"
         id="rect3814"
         style="fill:#ffffff;fill-opacity:1;stroke:none" />
      <path
         sodipodi:type="arc"
         style="fill:#ffffff;fill-opacity:1;stroke:none"
         id="path3816"
         sodipodi:cx="355.67471"
         sodipodi:cy="458.92282"
         sodipodi:rx="8.6620579"
         sodipodi:ry="8.6620579"
         d="m 364.33677,458.92282 c 0,4.78392 -3.87813,8.66206 -8.66206,8.66206 -4.78392,0 -8.66205,-3.87814 -8.66205,-8.66206 0,-4.78392 3.87813,-8.66206 8.66205,-8.66206 4.78393,0 8.66206,3.87814 8.66206,8.66206 z"
         transform="matrix(1.125679,0,0,1.125679,-171.50721,67.325585)" />
      <path
         sodipodi:nodetypes="sssss"
         inkscape:connector-curvature="0"
         id="path3820"
         d="m 239.86905,575.42756 c 0,2.34639 -5.36552,3.49852 -10.75069,3.49852 -5.38517,0 -11.00069,-1.15213 -11.00069,-3.49852 0,-2.34639 5.61552,-4.99853 11.00069,-4.99853 5.38517,0 10.75069,2.65214 10.75069,4.99853 z"
         style="fill:#ffffff;fill-opacity:1;stroke:none" />
      <path
         transform="matrix(0.10913492,0,0,0.27356763,190.45793,445.64681)"
         d="m 364.33677,458.92282 c 0,4.78392 -3.87813,8.66206 -8.66206,8.66206 -4.78392,0 -8.66205,-3.87814 -8.66205,-8.66206 0,-4.78392 3.87813,-8.66206 8.66205,-8.66206 4.78393,0 8.66206,3.87814 8.66206,8.66206 z"
         sodipodi:ry="8.6620579"
         sodipodi:rx="8.6620579"
         sodipodi:cy="458.92282"
         sodipodi:cx="355.67471"
         id="path3823"
         style="fill:#ffffff;fill-opacity:1;stroke:none"
         sodipodi:type="arc" />
    </g>
    <g
       id="g4723"
       transform="translate(-51.3895,-465)"
       style="fill:#ffffff;fill-opacity:1">
      <rect
         style="fill:#ffffff;fill-opacity:1;stroke:none"
         id="rect3825"
         width="31.384169"
         height="28.585962"
         x="176.19742"
         y="595.06921"
         rx="11.508705"
         ry="11.508705" />
      <path
         transform="matrix(1.125679,0,0,1.125679,-209.00721,67.325585)"
         d="m 364.33677,458.92282 c 0,4.78392 -3.87813,8.66206 -8.66206,8.66206 -4.78392,0 -8.66205,-3.87814 -8.66205,-8.66206 0,-4.78392 3.87813,-8.66206 8.66205,-8.66206 4.78393,0 8.66206,3.87814 8.66206,8.66206 z"
         sodipodi:ry="8.6620579"
         sodipodi:rx="8.6620579"
         sodipodi:cy="458.92282"
         sodipodi:cx="355.67471"
         id="path3827"
         style="fill:#ffffff;fill-opacity:1;stroke:none"
         sodipodi:type="arc" />
    </g>
    <g
       id="g4719"
       transform="translate(-158.8895,-465)"
       style="fill:#ffffff;fill-opacity:1">
      <rect
         ry="11.508705"
         rx="11.508705"
         y="595.06921"
         x="233.69742"
         height="28.585962"
         width="31.384169"
         id="rect3837"
         style="fill:#ffffff;fill-opacity:1;stroke:none" />
      <path
         sodipodi:type="arc"
         style="fill:#ffffff;fill-opacity:1;stroke:none"
         id="path3839"
         sodipodi:cx="355.67471"
         sodipodi:cy="458.92282"
         sodipodi:rx="8.6620579"
         sodipodi:ry="8.6620579"
         d="m 364.33677,458.92282 c 0,4.78392 -3.87813,8.66206 -8.66206,8.66206 -4.78392,0 -8.66205,-3.87814 -8.66205,-8.66206 0,-4.78392 3.87813,-8.66206 8.66205,-8.66206 4.78393,0 8.66206,3.87814 8.66206,8.66206 z"
         transform="matrix(1.125679,0,0,1.125679,-151.50721,67.325585)" />
    </g>
  </g>
</svg>
