<?xml version="1.0" encoding="UTF-8" standalone="no"?>
<!-- Created with Inkscape (http://www.inkscape.org/) -->
<svg id="svg3039" xmlns:rdf="http://www.w3.org/1999/02/22-rdf-syntax-ns#" xmlns="http://www.w3.org/2000/svg" height="128" width="128" version="1.1" xmlns:cc="http://creativecommons.org/ns#" xmlns:xlink="http://www.w3.org/1999/xlink" xmlns:dc="http://purl.org/dc/elements/1.1/">
 <metadata id="metadata3045">
  <rdf:RDF>
   <cc:Work rdf:about="">
    <dc:format>image/svg+xml</dc:format>
    <dc:type rdf:resource="http://purl.org/dc/dcmitype/StillImage"/>
    <dc:title/>
   </cc:Work>
  </rdf:RDF>
 </metadata>
 <defs id="defs3043">
  <linearGradient id="linearGradient9440">
   <stop id="stop9442" stop-color="#f6810b" offset="0"/>
   <stop id="stop9444" stop-color="#fcb041" offset="1"/>
  </linearGradient>
  <linearGradient id="linearGradient9390">
   <stop id="stop9392" offset="0"/>
   <stop id="stop9394" stop-opacity="0" offset="1"/>
  </linearGradient>
  <filter id="filter15758-4" height="1.2122" width="1.2028" color-interpolation-filters="sRGB" y="-.10611" x="-.1014">
   <feGaussianBlur id="feGaussianBlur15760-4" stdDeviation="4.6353635"/>
  </filter>
  <linearGradient id="linearGradient15762-5">
   <stop id="stop15764-4" stop-color="#fff" offset="0"/>
   <stop id="stop15766-7" stop-color="#fff" stop-opacity="0" offset="1"/>
  </linearGradient>
  <radialGradient id="radialGradient8325" gradientUnits="userSpaceOnUse" cy="76" cx="319.98" gradientTransform="matrix(3.4068 -.031444 .0078362 .82648 -770.72 23.249)" r="21.978">
   <stop id="stop5402" stop-color="#fff" offset="0"/>
   <stop id="stop4610" stop-color="#fff" stop-opacity=".49804" offset=".5"/>
   <stop id="stop5404" stop-color="#fff" stop-opacity="0" offset="1"/>
  </radialGradient>
  <radialGradient id="radialGradient8349" xlink:href="#linearGradient15762-5" gradientUnits="userSpaceOnUse" cy="178.16" cx="179.52" gradientTransform="matrix(1.3088 .77845 -.34302 .57647 -3.4812 -69.984)" r="68.868"/>
  <filter id="filter9372" width="1.0891" y="-1.4608" x="-.044538" height="3.9217" color-interpolation-filters="sRGB">
   <feGaussianBlur id="feGaussianBlur9374" stdDeviation="8.6081259"/>
  </filter>
  <filter id="filter9386" width="1.0576" y="-.94525" x="-.028819" height="2.8905" color-interpolation-filters="sRGB">
   <feGaussianBlur id="feGaussianBlur9388" stdDeviation="5.5699638"/>
  </filter>
  <radialGradient id="radialGradient9432" cx="239" xlink:href="#linearGradient15762-5" gradientUnits="userSpaceOnUse" cy="51" r="5"/>
  <linearGradient id="linearGradient11298" x1="199" gradientUnits="userSpaceOnUse" y1="55" gradientTransform="translate(20,-100)" x2="199" y2="45">
   <stop id="stop11213" stop-color="#fbaa39" offset="0"/>
   <stop id="stop11215" stop-color="#fbaa39" stop-opacity="0" offset="1"/>
  </linearGradient>
  <linearGradient id="linearGradient11654" x1="-854.41" xlink:href="#linearGradient9440" gradientUnits="userSpaceOnUse" y1="137.03" gradientTransform="matrix(.061569 0 0 .060871 216.62 71.29)" x2="-854.41" y2="437.18"/>
  <linearGradient id="linearGradient11666" x1="-854.41" xlink:href="#linearGradient9440" gradientUnits="userSpaceOnUse" y1="137.03" gradientTransform="matrix(.25 0 0 .25057 277.55 -.25312)" x2="-854.41" y2="437.18"/>
  <linearGradient id="linearGradient11716" x1="258.2" gradientUnits="userSpaceOnUse" y1="89.005" gradientTransform="translate(-95)" x2="258.2" y2="107.13">
   <stop id="stop11712" stop-color="#de6200" offset="0"/>
   <stop id="stop11714" stop-color="#c15500" offset="1"/>
  </linearGradient>
  <linearGradient id="linearGradient11768" x1="-853.73" xlink:href="#linearGradient9390" gradientUnits="userSpaceOnUse" y1="174.79" gradientTransform="matrix(.25 0 0 .25 277.55 0)" x2="-853.73" y2="119.28"/>
  <linearGradient id="linearGradient11770" x1="-853.73" xlink:href="#linearGradient9390" gradientUnits="userSpaceOnUse" y1="224.24" gradientTransform="matrix(.25 0 0 .25 277.55 0)" x2="-853.73" y2="100.6"/>
  <linearGradient id="linearGradient11772" x1="-854.41" xlink:href="#linearGradient9440" gradientUnits="userSpaceOnUse" y1="137.03" gradientTransform="matrix(.25 0 0 .25 277.55 0)" x2="-854.41" y2="437.18"/>
  <linearGradient id="linearGradient11788" x1="42.445" gradientUnits="userSpaceOnUse" y1="35.008" gradientTransform="matrix(1 0 0 1.0023 0 -.25312)" x2="42.445" y2="108.76">
   <stop id="stop11784" stop-color="#d06e08" offset="0"/>
   <stop id="stop11786" stop-color="#fb980a" offset="1"/>
  </linearGradient>
  <linearGradient id="linearGradient11792" x1="-853.73" xlink:href="#linearGradient9390" gradientUnits="userSpaceOnUse" y1="197.87" gradientTransform="matrix(.25 0 0 .17667 277.55 8.1078)" x2="-853.73" y2="107.44"/>
 </defs>
 <rect id="rect11794" opacity="0" rx="0" ry="0" height="128" width="128" y="0" x="-150"/>
 <g id="g11724" transform="translate(-150)">
  <path id="path11726" d="m17.578 18.266c-2.6332 0-4.75 2.1168-4.75 4.75 0 6.8736-5.2812 5.2028-5.2812 9.9219v3.1406h113.2v-3.1406c0-2.5971-2.0904-4.6875-4.6875-4.6875h-58.711c-2.6741-0.71652-2.4766-5.2344-2.4766-5.2344 0-2.6332-2.1168-4.75-4.75-4.75h-32.539z" fill="#f5810a"/>
  <path id="path11728" opacity=".46121" fill="url(#linearGradient11768)" d="m17.578 18.266c-2.6332 0-4.75 2.1168-4.75 4.75 0 6.8736-5.2812 5.2028-5.2812 9.9219v3.1406h113.2v-3.1406c0-2.5971-2.0904-4.6875-4.6875-4.6875h-58.711c-2.6741-0.71652-2.4766-5.2344-2.4766-5.2344 0-2.6332-2.1168-4.75-4.75-4.75h-32.539z"/>
  <rect id="rect11730" transform="matrix(.25 0 0 .25 277.55 0)" rx="7.0711" ry="7.0711" height="14.142" filter="url(#filter9372)" width="463.86" y="439.46" x="-1086.1" fill="#323232"/>
  <rect id="rect11732" opacity=".84483" transform="matrix(.25 0 0 .14905 277.55 45.314)" rx="7.0711" ry="7.0711" height="14.142" filter="url(#filter9386)" width="463.86" y="439.46" x="-1086.1" fill="#323232"/>
  <path id="path11734" opacity=".46121" fill="url(#linearGradient11770)" d="m17.578 18.266c-2.6332 0-4.75 2.1168-4.75 4.75 0 6.8736-5.2812 5.2028-5.2812 9.9219v3.1406h113.2v-3.1406c0-2.5971-2.0904-4.6875-4.6875-4.6875h-58.711c-2.6741-0.71652-2.4766-5.2344-2.4766-5.2344 0-2.6332-2.1168-4.75-4.75-4.75h-32.539z"/>
  <path id="path11736" fill="url(#linearGradient11772)" d="m6.0697 33.719c-2.8401 0-5.125 2.2849-5.125 5.125 1.51 23.377 2.9766 70.602 2.9766 70.602s-0.083375 2.3516 2.1484 2.3516h115.62c2.2318 0 2.1406-2.3516 2.1406-2.3516s1.4744-47.224 2.9844-70.602c0-2.8401-2.2849-5.125-5.125-5.125z"/>
  <g id="g11738" transform="matrix(.27224 0 0 .27224 -6.7122 -6.6923)">
   <path id="path11740" stroke-linejoin="round" style="enable-background:new" d="m259.03 219.2c-3.2986 0.42679-6.2088 3.0278-7.0233 6.2662l-14.038 42.297-3.1126 1.5783h-42.904c-2.3981 0-4.7384 1.2535-6.2414 3.133-3.1631 3.5542-2.37 9.8605 1.55 12.532l35.104 25.849 0.74668 3.7598-13.258 41.512c-1.8437 6.4792 6.8007 12.991 12.481 9.3992l35.101-25.847h4.4934l35.104 25.847c3.0524 2.0052 7.427 1.655 10.138-0.77694 2.2981-2.1306 3.2551-5.6121 2.3467-8.6174l-13.262-41.512c-1.2562-0.24996 0.49466-2.5064 0.74667-3.7596l35.1-25.849c3.9326-2.6718 4.7114-8.9781 1.5504-12.532-1.4912-1.8794-3.8421-3.0554-6.239-3.1331h-43.685l-3.1115-1.5782-13.262-42.297c-0.39082-1.4798-1.2168-2.8624-2.3467-3.9176-1.6482-1.6039-3.9557-2.4815-6.2397-2.3561l0.27779 0.002v0.0002l-0.0159 0.0006z" stroke="#d77711" stroke-linecap="round" stroke-width="14.128" fill="none"/>
   <path id="path11742" stroke-linejoin="round" style="enable-background:new" d="m259.03 217.43c-3.2986 0.4268-6.2088 3.0278-7.0233 6.2662l-14.038 42.297-3.1126 1.5782h-42.904c-2.3981 0-4.7384 1.2535-6.2414 3.133-3.1631 3.5542-2.37 9.8605 1.55 12.532l35.104 25.849 0.74668 3.7598-13.258 41.512c-1.8437 6.4792 6.8007 12.991 12.481 9.3993l35.101-25.847h4.4934l35.104 25.847c3.0524 2.0052 7.427 1.655 10.138-0.77695 2.2981-2.1306 3.2551-5.6121 2.3467-8.6174l-13.262-41.512c-1.2562-0.24997 0.49466-2.5064 0.74667-3.7596l35.1-25.849c3.9326-2.6717 4.7114-8.9781 1.5504-12.532-1.4912-1.8794-3.8421-3.0554-6.239-3.1331h-43.685l-3.1115-1.5782-13.262-42.297c-0.39082-1.4798-1.2168-2.8624-2.3467-3.9176-1.6482-1.6039-3.9557-2.4815-6.2397-2.3561l0.27779 0.002v0.0002l-0.0159 0.00059z" stroke="#fbc98d" stroke-linecap="round" stroke-width="14.128" fill="none"/>
   <path id="path11744" fill-rule="evenodd" fill="url(#radialGradient9432)" transform="matrix(4.7845 0 0 4.7845 -828.73 26.707)" d="m244 51c0 2.7614-2.2386 5-5 5s-5-2.2386-5-5 2.2386-5 5-5 5 2.2386 5 5z"/>
   <path id="path11746" fill-rule="evenodd" fill="#fff" transform="matrix(.89709 0 0 .89709 101.56 226.16)" d="m244 51c0 2.7614-2.2386 5-5 5s-5-2.2386-5-5 2.2386-5 5-5 5 2.2386 5 5z"/>
   <path id="path11748" opacity=".7" d="m244 51c0 2.7614-2.2386 5-5 5s-5-2.2386-5-5 2.2386-5 5-5 5 2.2386 5 5z" fill-rule="evenodd" transform="matrix(6.7271 0 0 6.7271 -1284.8 -77.665)" fill="url(#radialGradient9432)"/>
   <path id="path11750" fill-rule="evenodd" fill="#fff" transform="matrix(1.2613 0 0 1.2613 23.159 202.77)" d="m244 51c0 2.7614-2.2386 5-5 5s-5-2.2386-5-5 2.2386-5 5-5 5 2.2386 5 5z"/>
   <path id="path11752" style="color:#000000" fill="#fdeddd" d="m236.69 345.33s11.7-5.5188 22.296 0.22075l37.086 26.932c6.8433 3.7528 16.777-2.2075 18.322-8.6093 0 0-11.038 1.3245-15.011-4.8565l-34.45-26.04c-2.8698-2.2075-7.5056-2.2075-11.038-0.4415z"/>
   <path id="path11754" style="color:#000000" fill="#fde6cf" d="m222.02 371.88c-5.5188-1.766-7.846-5.3462-5.1028-15.571l6.9345-22.652c0.81611-7.762 0.5238-13.866-9.289-19.44 0 0-1.3268 10.74-3.9308 17.731l-7.6234 23.727c-0.53719 10.243 8.4334 17.36 19.011 16.205z"/>
   <path id="path11756" style="color:#000000" fill="#fff" d="m250.86 248.12s-6.3564 11.267-18.32 12.709l-41.857 0.3467c-10.402 0.0106-16.608 13.045-12.843 22.694 0 0 1.1766-8.3445 13.732-8.4678l43.379-0.86034c3.6178 0.14234 7.4005-2.5376 9.2616-6.0205z"/>
   <path id="path11758" style="color:#000000" fill="#fff" d="m250.7 214.89s3.9912 2.3716 9.9456 12.848l6.5483 21.48c3.8212 6.8053 7.2406 12.89 18.469 11.765 0 0-8.5062-27.285-13.302-40.769-5.4831-8.6687-14.072-8.3293-21.661-5.3251z"/>
   <path id="path11760" opacity=".5" d="m244 51c0 2.7614-2.2386 5-5 5s-5-2.2386-5-5 2.2386-5 5-5 5 2.2386 5 5z" fill-rule="evenodd" transform="matrix(6.7271 0 0 6.7271 -1300.5 14.806)" fill="url(#radialGradient9432)"/>
   <path id="path11762" fill-rule="evenodd" fill="#fff" transform="matrix(1.2613 0 0 1.2613 7.5 295.24)" d="m244 51c0 2.7614-2.2386 5-5 5s-5-2.2386-5-5 2.2386-5 5-5 5 2.2386 5 5z"/>
   <path id="path11764" fill-rule="evenodd" fill="#fff" transform="matrix(.59908 0 0 .59908 157.68 329.42)" d="m244 51c0 2.7614-2.2386 5-5 5s-5-2.2386-5-5 2.2386-5 5-5 5 2.2386 5 5z"/>
  </g>
  <path id="path11766" stroke-linejoin="round" d="m206.67 217.35-40.254-8.0108-22.183 34.465-4.8204-40.759-39.633-10.447 37.275-17.18-2.3117-40.921 27.858 30.142 38.204-14.844-20.058 35.808z" transform="matrix(.34235 .15118 -.15122 .34243 38.218 -13.656)" filter="url(#filter15758-4)" stroke="url(#radialGradient8349)" stroke-linecap="round" stroke-width="11.498" fill="none"/>
 </g>
 <rect id="rect3589" width="120" y="-227.71" x="877.12" height="24" display="none" fill="#eeeeec"/>
 <rect id="rect4698" width="48" y="-443.71" x="867.12" height="48" display="none" fill="#eeeeec"/>
 <rect id="rect4700" width="32" y="-367.71" x="874.12" height="32" display="none" fill="#eeeeec"/>
 <rect id="rect4702" width="22" y="-316.71" x="874.12" height="22" display="none" fill="#eeeeec"/>
 <rect id="rect4704" width="16" y="-274.71" x="874.12" height="16" display="none" fill="#eeeeec"/>
 <rect id="rect4706" width="24" y="-317.71" x="873.12" height="24" display="none" fill="#eeeeec"/>
 <rect id="rect4708" width="256" y="-465.71" x="591.12" height="256" display="none" fill="#eeeeec"/>
 <text id="text4710" style="enable-background:new" xml:space="preserve" font-size="18.301px" display="none" y="-472.19742" x="592.09564" font-family="Bitstream Vera Sans" fill="#000000"><tspan id="tspan4712" y="-472.19742" x="592.09564">places</tspan></text>
 <text id="text4714" style="enable-background:new" font-family="Droid Sans" display="none" xml:space="preserve" font-size="18.301px" line-height="125%" y="-472.19742" x="713.09564" font-weight="bold" fill="#000000"><tspan id="tspan4716" y="-472.19742" x="713.09564">sparkleshare</tspan></text>
 <rect id="rect22378" width="22" y="-316.71" x="904.12" height="22" display="none" fill="#ededed"/>
 <rect id="rect22380" width="24" y="-317.71" x="903.12" height="24" display="none" fill="#ededed"/>
 <path id="path10418" opacity=".82101" style="enable-background:new" d="m314.62 61.562c-0.27285 0-0.50707 0.15801-0.71875 0.4375l-1.5938 2.0938c-0.60305 0.79616-1.6115 1.3746-2.8125 1.375h-10.875c-0.004 0 0.002-0.0034-0.0312 0.03125-0.0333 0.03464-0.0317 0.12302-0.0312-0.0625l-0.0312 5.3125c-0.0122 3.8367-0.0453 9.007 0.15625 13.188 0.1008 2.0902 0.25866 3.9401 0.5 5.1875 0.11807 0.61023 0.26774 1.0867 0.375 1.3125h40.875c0.0692-0.12036 0.17803-0.37231 0.28125-0.78125 0.22371-0.8863 0.38957-2.3178 0.5-4.0938 0.22087-3.5518 0.22025-8.5147 0.21875-13.969v-10.031c-0.003-0.0017 0.0133 0-0.0625 0h-26.75z" xlink:href="#path9590" transform="translate(47.374 -578.96)" stroke="url(#radialGradient8325)" stroke-width="1.0392" fill="none"/>
 <path id="path10440" opacity=".1" stroke-linejoin="round" style="enable-background:new" d="m306.5 131.5v22h25v-19.969h-12.312c-0.48404-0.00002-0.98403-0.19311-1.4688-0.5625l-1.75-1.3438c-0.19-0.15-0.3-0.13-0.22-0.13h-9.25z" transform="translate(47.374 -578.96)" stroke="#fff" fill="none"/>
 <use id="use3340" style="enable-background:new" xlink:href="#g3326" transform="translate(576.13 -243.71)" height="400" width="500" y="0" x="0"/>
 <path id="path11597" stroke="#de6200" fill="#f5810a" d="m152.71 74.5c-0.66088 0-1.2987 0.53456-1.1921 1.1799 0.375 2.2699-1.0129 1.9777-1.0129 3.0271v1.7176h26.909v-1.7176c0-0.64514-0.52462-1.1644-1.1764-1.1644h-14.235c-0.67111-0.17798-0.62154-1.8627-0.62154-1.8627 0-0.6541-0.53124-1.1799-1.1921-1.1799z"/>
 <rect id="rect11706" fill-opacity=".24" rx=".88128" ry=".88128" height="3" width="30" y="97" x="149"/>
 <path id="path11607" stroke="url(#linearGradient11716)" fill="url(#linearGradient11654)" d="m149.76 79.5c-0.69945 0-1.2622 0.55634-1.2622 1.2479 0.37186 5.6921 0.73304 17.19 0.73304 17.19s-0.0205 0.57258 0.52912 0.57258h28.476c0.54964 0 0.52719-0.57258 0.52719-0.57258s0.36312-11.498 0.73498-17.19c0-0.692-0.56-1.248-1.26-1.248z"/>
 <path id="path5717-0-9-4-5" stroke-linejoin="round" style="enable-background:new" d="m163.8 85.046c-0.21769 0.02807-0.40976 0.19928-0.46353 0.41241l-0.92664 2.7838s-0.12441 0.06267-0.20548 0.10388h-2.832c-0.15833 0-0.31284 0.08251-0.41206 0.2062-0.20878 0.23393-0.15637 0.64898 0.10236 0.82484l2.3172 1.7013 0.0492 0.24746-0.87516 2.7322c-0.12169 0.42644 0.44895 0.85501 0.82386 0.61861l2.317-1.7011h0.29656l2.3172 1.7011c0.20149 0.13199 0.49024 0.10893 0.66918-0.05114 0.15171-0.14023 0.21489-0.36936 0.15493-0.56715l-0.87542-2.7322c-0.0831-0.01645 0.0322-0.16497 0.0492-0.24744l2.3169-1.7013c0.25958-0.17585 0.31097-0.59091 0.10235-0.82483-0.0985-0.12368-0.25364-0.20109-0.41188-0.20621h-2.8836s-0.12975-0.06564-0.20539-0.10388l-0.87542-2.7838c-0.0263-0.0974-0.0806-0.1884-0.15485-0.25784-0.10881-0.10555-0.26111-0.16332-0.41189-0.15507l0.0178 0.00017-0.00077 0.000008 0.00034-0.000025z" stroke="#bb660b" stroke-linecap="round" stroke-width="1.272" fill="none"/>
 <path id="path5717-0-9-4" stroke-linejoin="round" style="enable-background:new" d="m163.8 84.198c-0.21772 0.02807-0.4098 0.19928-0.46355 0.41241l-0.9267 2.7838s-0.12433 0.06267-0.20541 0.10388h-2.832c-0.15827 0-0.31278 0.08251-0.41199 0.20621-0.20879 0.23392-0.15647 0.64897 0.10231 0.82484l2.3172 1.7013 0.0492 0.24746-0.87516 2.7322c-0.12174 0.42644 0.44891 0.85502 0.82387 0.61862l2.3169-1.7011h0.2966l2.3172 1.7011c0.20153 0.13198 0.49022 0.10892 0.66922-0.05114 0.15167-0.14023 0.21487-0.36936 0.15491-0.56716l-0.87542-2.7322c-0.0829-0.01645 0.0324-0.16498 0.0492-0.24745l2.317-1.7013c0.25956-0.17585 0.31097-0.5909 0.10232-0.82483-0.0984-0.12368-0.2536-0.20108-0.41187-0.20621h-2.8836s-0.12978-0.06564-0.20541-0.10387l-0.87541-2.7838c-0.026-0.0974-0.0803-0.1884-0.15491-0.25784-0.1088-0.10555-0.26111-0.16332-0.41186-0.15507l0.0181 0.00017-0.00078 0.000008v0z" stroke="#fde8d0" stroke-linecap="round" stroke-width="1.272" fill="none"/>
 <g id="g11677">
  <path id="path9324" stroke="#d06e08" fill="#f5810a" d="m17.531 18.5c-2.6332 0-4.75 2.1168-4.75 4.75 0 6.8736-5.2812 5.2028-5.2812 9.9219v3.1406h113.2v-3.1406c0-2.5971-2.0904-4.6875-4.6875-4.6875h-58.711c-2.676-0.716-2.479-5.234-2.479-5.234 0-2.6332-2.1168-4.75-4.75-4.75h-32.539z"/>
  <path id="path9326" opacity=".46121" fill="url(#linearGradient11792)" d="m17.578 21.016c-2.6332 0-4.75 1.4959-4.75 3.3567 0 4.8574-5.2812 3.6767-5.2812 7.0115v2.2194h113.2v-2.2194c0-1.8353-2.0904-3.3125-4.6875-3.3125h-58.711c-2.6741-0.50634-2.4766-3.699-2.4766-3.699 0-1.8608-2.1168-3.3567-4.75-3.3567h-32.539z"/>
  <rect id="rect9332" ry="7.0711" rx="7.0711" transform="matrix(.25 0 0 .25 277.55 0)" height="14.142" filter="url(#filter9372)" width="463.86" y="439.46" x="-1086.1" fill="#323232"/>
  <rect id="rect9376" opacity=".84483" ry="7.0711" rx="7.0711" transform="matrix(.25 0 0 .14905 277.55 45.314)" height="14.142" filter="url(#filter9386)" width="463.86" y="439.46" x="-1086.1" fill="#323232"/>
  <path id="path9328" stroke="url(#linearGradient11788)" fill="url(#linearGradient11666)" d="m6.0697 33.542c-2.8401 0-5.125 2.2901-5.125 5.1366 1.51 23.43 2.9766 70.761 2.9766 70.761s-0.083375 2.3569 2.1484 2.3569h115.62c2.2318 0 2.1406-2.3569 2.1406-2.3569s1.4744-47.331 2.9844-70.761c0-2.8465-2.2849-5.1366-5.125-5.1366z"/>
  <g id="g9407" transform="matrix(.27224 0 0 .27224 -6.7122 -6.6923)">
   <path id="path5717-0-9-5-0" stroke-linejoin="round" style="enable-background:new" d="m259.03 219.2c-3.2986 0.42679-6.2088 3.0278-7.0233 6.2662l-14.038 42.297-3.1126 1.5783h-42.904c-2.3981 0-4.7384 1.2535-6.2414 3.133-3.1631 3.5542-2.37 9.8605 1.55 12.532l35.104 25.849 0.74668 3.7598-13.258 41.512c-1.8437 6.4792 6.8007 12.991 12.481 9.3992l35.101-25.847h4.4934l35.104 25.847c3.0524 2.0052 7.427 1.655 10.138-0.77694 2.2981-2.1306 3.2551-5.6121 2.3467-8.6174l-13.262-41.512c-1.2562-0.24996 0.49466-2.5064 0.74667-3.7596l35.1-25.849c3.9326-2.6718 4.7114-8.9781 1.5504-12.532-1.4912-1.8794-3.8421-3.0554-6.239-3.1331h-43.685l-3.1115-1.5782-13.262-42.297c-0.39082-1.4798-1.2168-2.8624-2.3467-3.9176-1.6482-1.6039-3.9557-2.4815-6.2397-2.3561l0.27779 0.002v0.0002l-0.0159 0.0006z" stroke="#d77711" stroke-linecap="round" stroke-width="14.128" fill="none"/>
   <path id="path9410" stroke-linejoin="round" style="enable-background:new" d="m259.03 217.43c-3.2986 0.4268-6.2088 3.0278-7.0233 6.2662l-14.038 42.297-3.1126 1.5782h-42.904c-2.3981 0-4.7384 1.2535-6.2414 3.133-3.1631 3.5542-2.37 9.8605 1.55 12.532l35.104 25.849 0.74668 3.7598-13.258 41.512c-1.8437 6.4792 6.8007 12.991 12.481 9.3993l35.101-25.847h4.4934l35.104 25.847c3.0524 2.0052 7.427 1.655 10.138-0.77695 2.2981-2.1306 3.2551-5.6121 2.3467-8.6174l-13.262-41.512c-1.2562-0.24997 0.49466-2.5064 0.74667-3.7596l35.1-25.849c3.9326-2.6717 4.7114-8.9781 1.5504-12.532-1.4912-1.8794-3.8421-3.0554-6.239-3.1331h-43.685l-3.1115-1.5782-13.262-42.297c-0.39082-1.4798-1.2168-2.8624-2.3467-3.9176-1.6482-1.6039-3.9557-2.4815-6.2397-2.3561l0.27779 0.002v0.0002l-0.0159 0.00059z" stroke="#fbc98d" stroke-linecap="round" stroke-width="14.128" fill="none"/>
   <path id="path14841-3" fill-rule="evenodd" fill="url(#radialGradient9432)" transform="matrix(4.7845 0 0 4.7845 -828.73 26.707)" d="m244 51c0 2.7614-2.2386 5-5 5s-5-2.2386-5-5 2.2386-5 5-5 5 2.2386 5 5z"/>
   <path id="path14843-0" fill-rule="evenodd" fill="#fff" transform="matrix(.89709 0 0 .89709 101.56 226.16)" d="m244 51c0 2.7614-2.2386 5-5 5s-5-2.2386-5-5 2.2386-5 5-5 5 2.2386 5 5z"/>
   <path id="path14849-7" opacity=".7" d="m244 51c0 2.7614-2.2386 5-5 5s-5-2.2386-5-5 2.2386-5 5-5 5 2.2386 5 5z" fill-rule="evenodd" transform="matrix(6.7271 0 0 6.7271 -1284.8 -77.665)" fill="url(#radialGradient9432)"/>
   <path id="path14851-8" fill-rule="evenodd" fill="#fff" transform="matrix(1.2613 0 0 1.2613 23.159 202.77)" d="m244 51c0 2.7614-2.2386 5-5 5s-5-2.2386-5-5 2.2386-5 5-5 5 2.2386 5 5z"/>
   <path id="path11982-8" style="color:#000000" fill="#fdeddd" d="m236.69 345.33s11.7-5.5188 22.296 0.22075l37.086 26.932c6.8433 3.7528 16.777-2.2075 18.322-8.6093 0 0-11.038 1.3245-15.011-4.8565l-34.45-26.04c-2.8698-2.2075-7.5056-2.2075-11.038-0.4415z"/>
   <path id="path11986-8" style="color:#000000" fill="#fde6cf" d="m222.02 371.88c-5.5188-1.766-7.846-5.3462-5.1028-15.571l6.9345-22.652c0.81611-7.762 0.5238-13.866-9.289-19.44 0 0-1.3268 10.74-3.9308 17.731l-7.6234 23.727c-0.53719 10.243 8.4334 17.36 19.011 16.205z"/>
   <path id="path12005-4" style="color:#000000" fill="#fff" d="m250.86 248.12s-6.3564 11.267-18.32 12.709l-41.857 0.3467c-10.402 0.0106-16.608 13.045-12.843 22.694 0 0 1.1766-8.3445 13.732-8.4678l43.379-0.86034c3.6178 0.14234 7.4005-2.5376 9.2616-6.0205z"/>
   <path id="path12007-3" style="color:#000000" fill="#fff" d="m250.7 214.89s3.9912 2.3716 9.9456 12.848l6.5483 21.48c3.8212 6.8053 7.2406 12.89 18.469 11.765 0 0-8.5062-27.285-13.302-40.769-5.4831-8.6687-14.072-8.3293-21.661-5.3251z"/>
   <path id="path12058-4" opacity=".5" d="m244 51c0 2.7614-2.2386 5-5 5s-5-2.2386-5-5 2.2386-5 5-5 5 2.2386 5 5z" fill-rule="evenodd" transform="matrix(6.7271 0 0 6.7271 -1300.5 14.806)" fill="url(#radialGradient9432)"/>
   <path id="path12060-9" fill-rule="evenodd" fill="#fff" transform="matrix(1.2613 0 0 1.2613 7.5 295.24)" d="m244 51c0 2.7614-2.2386 5-5 5s-5-2.2386-5-5 2.2386-5 5-5 5 2.2386 5 5z"/>
   <path id="path12064-0" fill-rule="evenodd" fill="#fff" transform="matrix(.59908 0 0 .59908 157.68 329.42)" d="m244 51c0 2.7614-2.2386 5-5 5s-5-2.2386-5-5 2.2386-5 5-5 5 2.2386 5 5z"/>
  </g>
  <path id="path14984-6" stroke-linejoin="round" d="m206.67 217.35-40.254-8.0108-22.183 34.465-4.8204-40.759-39.633-10.447 37.275-17.18-2.3117-40.921 27.858 30.142 38.204-14.844-20.058 35.808z" transform="matrix(.34235 .15118 -.15122 .34243 38.218 -13.656)" filter="url(#filter15758-4)" stroke="url(#radialGradient8349)" stroke-linecap="round" stroke-width="11.498" fill="none"/>
 </g>
 <g id="g11287" transform="translate(-55,-10)">
  <rect id="rect11285" opacity="0" height="16" width="16" y="41" x="211"/>
  <rect id="rect11244" stroke-linejoin="round" rx=".5" ry=".5" height="3" width="5" stroke="#bd5400" y="42.5" x="212.5" fill="#f57900"/>
  <rect id="rect11283" ry=".57452" fill-opacity=".13725" rx=".57452" transform="scale(1,-1)" height="3" width="16" y="-57" x="211"/>
  <rect id="rect11197" stroke-linejoin="round" rx="0" ry="0" height="11" width="15" stroke="#bd5400" y="44.5" x="211.5" fill="#f57900"/>
  <rect id="rect11209" ry="0" rx="0" transform="scale(1,-1)" height="10" width="14" y="-55" x="212" fill="url(#linearGradient11298)"/>
  <rect id="rect11242" opacity=".2" rx="0" ry="0" height="1" width="14" y="45" x="212" fill="#fff"/>
  <rect id="rect11246" rx="0" ry="0" height="1" width="4" y="44" x="213" fill="#df7916"/>
  <path id="path11281" stroke-linejoin="round" style="enable-background:new" d="m218.97 47.511c-0.15205 0.02025-0.28619 0.14355-0.32372 0.29709l-0.55878 1.6297c-0.0172 0.03564-0.0134-0.0056-0.0196 0.03358-0.0343-0.01782-0.0862 0.04846-0.12381 0.04127h-2.0662c-0.11053 0-0.21844 0.05943-0.28772 0.14854-0.14581 0.16851-0.10927 0.4675 0.0715 0.59418l1.8392 1.2255-0.97463 2.522c-0.085 0.30719 0.31351 0.61592 0.57536 0.44563l1.7948-0.93817h0.20713l1.8171 0.93817c0.39023 0.17239 0.6037-0.12047 0.57554-0.44542l-0.99959-2.479 1.8417-1.2686c0.18127-0.12667 0.21717-0.42566 0.0715-0.59417-0.0688-0.0891-0.17711-0.14486-0.28763-0.14854h-1.9254c-0.038 0.01185-0.0732-0.01222-0.10818 0.0056-0.0118-0.03919-0.0181-0.04479-0.0352-0.08046l-0.69974-1.6297c-0.0181-0.07016-0.056-0.13571-0.10819-0.18574-0.0759-0.07604-0.18234-0.11765-0.28763-0.11171l0.0126 0.000122-0.00055 0.000009z" stroke="#bb660b" stroke-linecap="round" fill="none"/>
  <path id="path5717" stroke-linejoin="round" style="enable-background:new" d="m218.97 46.501c-0.15205 0.02025-0.28619 0.14355-0.32372 0.29709l-0.55878 1.6297c-0.0172 0.03564-0.0134-0.0056-0.0196 0.03358-0.0343-0.01782-0.0862 0.04846-0.12381 0.04127h-2.0662c-0.11053 0-0.21844 0.05943-0.28772 0.14854-0.14581 0.16851-0.10927 0.4675 0.0715 0.59418l1.8392 1.2255-0.97463 2.522c-0.085 0.30719 0.31351 0.61592 0.57536 0.44563l1.7948-0.93817h0.20713l1.8171 0.93817c0.39023 0.17239 0.6037-0.12047 0.57554-0.44542l-0.99959-2.479 1.8417-1.2686c0.18127-0.12667 0.21717-0.42566 0.0715-0.59417-0.0688-0.0891-0.17711-0.14486-0.28763-0.14854h-1.9254c-0.038 0.01185-0.0732-0.01222-0.10818 0.0056-0.0118-0.03919-0.0181-0.04479-0.0352-0.08046l-0.69974-1.6297c-0.0181-0.07016-0.056-0.13571-0.10819-0.18574-0.0759-0.07604-0.18234-0.11765-0.28763-0.11171l0.0126 0.000122-0.00055 0.000009z" stroke="#fff" stroke-linecap="round" fill="none"/>
 </g>
 <rect id="rect11702" opacity=".15" rx=".5" ry=".5" height="1" width="30" y="80" x="149" fill="#fef8f3"/>
 <rect id="rect11708" opacity=".07" rx=".43333" ry=".5" height="1" width="26" y="78" x="151"/>
 <rect id="rect11718" opacity=".15" rx=".5" ry=".5" height="1" width="30" y="79" x="149"/>
 <rect id="rect11720" opacity=".15" rx=".14167" ry=".5" height="1" width="8.5" y="75" x="152.5" fill="#fef8f3"/>
 <rect id="rect11722" opacity="0" height="32" width="32" y="71" x="148"/>
</svg>
