<?xml version="1.0" encoding="UTF-8" standalone="no"?>
<!-- Created with Inkscape (http://www.inkscape.org/) -->
<svg id="svg9662" xmlns:rdf="http://www.w3.org/1999/02/22-rdf-syntax-ns#" xmlns="http://www.w3.org/2000/svg" height="24" width="24" version="1.1" xmlns:cc="http://creativecommons.org/ns#" xmlns:xlink="http://www.w3.org/1999/xlink" xmlns:dc="http://purl.org/dc/elements/1.1/">
 <defs id="defs3">
  <radialGradient id="radialGradient10506" gradientUnits="userSpaceOnUse" cy="14.109" cx="-590.08" gradientTransform="matrix(1.4877 .041839 -.014577 .51834 890.09 1046.6)" r="11">
   <stop id="stop10518" stop-color="#2535ac" offset="0"/>
   <stop id="stop10520" stop-color="#171717" offset="1"/>
  </radialGradient>
  <linearGradient id="linearGradient10550" y2="31.362" gradientUnits="userSpaceOnUse" x2="-590" gradientTransform="matrix(1 0 0 1.0161 602 1011.5)" y1="32.362" x1="-590">
   <stop id="stop10546" stop-color="#b1423a" offset="0"/>
   <stop id="stop10548" stop-color="#b1423a" stop-opacity="0" offset="1"/>
  </linearGradient>
  <radialGradient id="radialGradient10563" gradientUnits="userSpaceOnUse" cy="23.44" cx="-589.81" gradientTransform="matrix(1.1094 0 0 .49232 666.54 1025.6)" r="8">
   <stop id="stop10559" stop-color="#fff" offset="0"/>
   <stop id="stop10561" stop-color="#ffaa7e" offset="1"/>
  </radialGradient>
  <linearGradient id="linearGradient10567" y2="29.845" gradientUnits="userSpaceOnUse" x2="-589.94" gradientTransform="translate(602,1012)" y1="17.725" x1="-592.02">
   <stop id="stop10524" stop-color="#fff" stop-opacity=".69432" offset="0"/>
   <stop id="stop10526" stop-color="#fff" stop-opacity="0" offset="1"/>
  </linearGradient>
  <linearGradient id="linearGradient10585" y2="38.362" gradientUnits="userSpaceOnUse" x2="-592" gradientTransform="translate(602,1014)" y1="35.362" x1="-592">
   <stop id="stop10581" stop-color="#131527" offset="0"/>
   <stop id="stop10583" stop-color="#111313" stop-opacity="0" offset="1"/>
  </linearGradient>
  <linearGradient id="linearGradient10616" y2="38.269" gradientUnits="userSpaceOnUse" x2="-597.43" gradientTransform="translate(600,1014)" y1="35.362" x1="-597.43">
   <stop id="stop10612" stop-color="#131527" offset="0"/>
   <stop id="stop10614" stop-opacity="0" offset="1"/>
  </linearGradient>
  <linearGradient id="linearGradient10624" y2="38.362" gradientUnits="userSpaceOnUse" x2="-598" gradientTransform="translate(600,1014)" y1="35.362" x1="-598">
   <stop id="stop10620" stop-color="#7c7c79" offset="0"/>
   <stop id="stop10622" stop-color="#272726" stop-opacity="0" offset="1"/>
  </linearGradient>
  <linearGradient id="linearGradient10636" y2="38.362" gradientUnits="userSpaceOnUse" x2="-590" gradientTransform="translate(602,1014)" y1="30.362" x1="-590">
   <stop id="stop10632" stop-color="#fff" offset="0"/>
   <stop id="stop10634" stop-color="#fff" stop-opacity="0" offset="1"/>
  </linearGradient>
  <linearGradient id="linearGradient10655" y2="38.362" gradientUnits="userSpaceOnUse" x2="-590" gradientTransform="matrix(.91713 0 0 1.0176 553.1 1013.8)" y1="35.362" x1="-590">
   <stop id="stop10573" stop-color="#1c2148" offset="0"/>
   <stop id="stop10575" stop-color="#272726" stop-opacity="0" offset="1"/>
  </linearGradient>
 </defs>
 <metadata id="metadata4">
  <rdf:RDF>
   <cc:Work rdf:about="">
    <dc:format>image/svg+xml</dc:format>
    <dc:type rdf:resource="http://purl.org/dc/dcmitype/StillImage"/>
    <dc:title/>
   </cc:Work>
  </rdf:RDF>
 </metadata>
 <g id="layer1" transform="translate(0 -1028.4)">
  <path id="rect10569" d="m10.96 1047.3c-2.2186 0-4.0038 1.8007-4.0038 4.0385v1.0811h3.0108c-0.00035-0.011 0-0.021 0-0.032v-0.5565c0-0.5638-0.0229-1.0176 0.53594-1.0176 0.55889 0 0.48865 0.4538 0.48865 1.0176v0.5565c0 0.011 0.00035 0.021 0 0.032h2.0177c-0.00035-0.011 0-0.021 0-0.032v-0.5565c0-0.5638-0.0702-1.0176 0.48865-1.0176 0.5589 0 0.55171 0.4538 0.55171 1.0176v0.5565c0 0.011 0.00035 0.021 0 0.032h2.995v-1.0811c0-2.2379-1.7852-4.0385-4.0038-4.0385z" fill="url(#linearGradient10655)"/>
  <rect id="rect10450" opacity="0" height="24" width="24" y="1028.4" x="-.025146"/>
  <rect id="rect10599" stroke-linejoin="round" rx="4.5" ry="4.5" height="9" width="11" stroke="url(#linearGradient10585)" stroke-linecap="round" y="1046.9" x="6.5" fill="none"/>
  <rect id="rect10587" rx=".5" ry=".5" height="1" width="3" y="1041.4" x="0" fill="#9aa5a5"/>
  <rect id="rect10589" rx=".5" ry=".5" height="1" width="3" y="1043.4" x="0" fill="#9aa5a5"/>
  <rect id="rect10591" rx=".5" ry=".5" height="1" width="3" y="1041.4" x="21" fill="#9aa5a5"/>
  <rect id="rect10593" rx=".5" ry=".5" height="1" width="3" y="1043.4" x="21" fill="#9aa5a5"/>
  <path id="rect10454" d="m2.5249 1029.8c-0.10633 3.0297 0.12766 2.8961 0.49638 4.0701-0.95457 1.3325-1.5213 3.0062-1.5213 5 0 5.986 1.9523 8 8.5909 8h3.8182c6.6685 0 8.5909-1.9828 8.5909-8 0-2.0419-0.54583-3.7428-1.4915-5.0938 0.60669-1.8439 0.46628-1.5847 0.49594-3.9634 0 0-3.0836 0.058-4.4462 1.1197-1.4202-0.5117-3.3837-1.0852-5.0582-1.0625-1.599 0-3.6075 0.5644-5.0313 1.0937-1.4394-1.1576-4.4438-1.1638-4.4438-1.1638z" stroke="#131527" fill="url(#radialGradient10506)"/>
  <path id="path10512" opacity=".3" d="m21 1030.8c-1.5805 0.067-3.6829 1.1868-4.1562 1.125-1.2849-0.4629-3.2698-1.0525-4.8438-1.0312-1.4803 0-3.0366 0.4516-4.3438 0.9375-0.35655 0.1368-3.6015-1.1397-4.5312-1.0625 5.8943 0.6421 2.8155 3.941 0.875 2.8125 0.0953 0.3038 0.0353 0.6519-0.15625 0.9062-0.83402 1.1643-1.3438 2.6065-1.3438 4.4063 0 2.8835 0.47938 4.5311 1.5 5.5s2.8762 1.5 6.0938 1.5h3.8125c3.2345 0 5.0792-0.506 6.0938-1.4688 1.0145-0.9627 1.5-2.6299 1.5-5.5312 0-1.8598-0.48841-3.354-1.3125-4.5313-0.17259-0.2398-0.26276-0.4329-0.1875-0.7187-1.1665 1.1547-5.3704-1.7605 1-2.8438z" stroke="url(#linearGradient10567)" fill="none"/>
  <path id="path10532" d="m7.5 1035.4c2.393 0 2.2451 1.0381 4.5352 1.0381 2.2205 0 1.8924-0.9998 4.4648-0.9998 2.493 0 4.5 3.3379 4.5 6.0558 0 2.7178-2.007 4.9059-4.5 4.9059h-9c-2.493 0-4.5-2.1881-4.5-4.9059 0-2.7179 2.007-6.0941 4.5-6.0941z" fill="#111313"/>
  <path id="rect10488" d="m8 1036.4c2.1271 0 1.9957 1.081 4.0312 1.081 1.9738 0 1.6822-1.0462 3.9688-1.0462 2.216 0 4 3.0249 4 5.488s-1.784 4.446-4 4.446h-8c-2.216 0-4-1.9829-4-4.446s1.784-5.5228 4-5.5228z" fill="url(#radialGradient10563)"/>
  <path id="path10458" d="m-563.12 7.5677a6.6733 7.3804 0 1 1 -13.347 0 6.6733 7.3804 0 1 1 13.347 0z" transform="matrix(.44955 0 0 .47423 263.65 1037.8)" stroke="#eeb09a" stroke-width="2.1658" fill="#fff"/>
  <path id="path10456" d="m-563.12 7.5677a6.6733 7.3804 0 1 1 -13.347 0 6.6733 7.3804 0 1 1 13.347 0z" transform="matrix(.22478 0 0 .27099 135.58 1039.3)" fill="#b1423a"/>
  <path id="path10565" d="m-563.12 7.5677a6.6733 7.3804 0 1 1 -13.347 0 6.6733 7.3804 0 1 1 13.347 0z" transform="matrix(.44955 0 0 .47423 272.65 1037.8)" stroke="#eeb09a" stroke-width="2.1658" fill="#fff"/>
  <path id="path10484" d="m-563.12 7.5677a6.6733 7.3804 0 1 1 -13.347 0 6.6733 7.3804 0 1 1 13.347 0z" transform="matrix(.22478 0 0 .27099 144.58 1039.3)" fill="#b1423a"/>
  <rect id="rect10534" stroke-linejoin="round" rx=".65675" ry=".65675" height="2.001" width="3.001" stroke="url(#linearGradient10550)" stroke-linecap="round" y="1042.9" x="10.5" stroke-width="0.999" fill="none"/>
  <path id="path10486" d="m-563.12 7.5677a6.6733 7.3804 0 1 1 -13.347 0 6.6733 7.3804 0 1 1 13.347 0z" transform="matrix(.10018 0 0 .067747 69.082 1042.3)" fill="#5b221e"/>
  <path id="path10553" opacity=".5" d="m-564.67 2.8403a6.6733 7.3804 0 1 1 -10.402 9.2441" transform="matrix(.37463 0 0 .33873 218.46 1029.8)" stroke="#111313" stroke-width="2.8072" fill="none"/>
  <path id="path10555" opacity=".5" fill="none" transform="matrix(-.37463 0 0 .33873 -194.46 1029.8)" stroke="#111313" stroke-width="2.8072" d="m-564.67 2.8403a6.6733 7.3804 0 1 1 -10.402 9.2441"/>
  <path id="path10608" stroke-linejoin="round" d="m4.4719 1052.3c0.0663-4.773-0.97306-5.4525-4.0246-5.4525 2.6296 1.9445 1.983 2.3693 2.0493 5.485" stroke="url(#linearGradient10616)" stroke-width="1px" fill="url(#linearGradient10624)"/>
  <rect id="rect10626" opacity=".3" stroke-linejoin="round" rx="3.5" ry="3.5" height="9" width="9" stroke="url(#linearGradient10636)" stroke-linecap="round" y="1047.9" x="7.5" fill="none"/>
  <path id="path10638" opacity=".13934" stroke-linejoin="round" d="m-586.64 21.321a4.0659 1.3037 0 0 1 -6.8438 0.10283" transform="matrix(.59678 0 0 1.0049 364.2 1013.8)" stroke="#fff" stroke-linecap="round" stroke-width="1.2913" fill="#272726"/>
  <g id="layer9" stroke-linejoin="round" transform="translate(-1687.8 -118.06)" stroke="#000" stroke-linecap="round" display="none" fill="#fff">
   <path id="path11071" opacity=".5" style="enable-background:new" d="m729.88 60.625a14.688 5.9375 0 1 1 -29.375 0 14.688 5.9375 0 1 1 29.375 0z" transform="matrix(1.2596 0 0 1.0947 -22.831 -6.3684)" display="inline" stroke-width=".85160"/>
   <path id="path11073" opacity=".5" style="enable-background:new" d="m729.88 60.625a14.688 5.9375 0 1 1 -29.375 0 14.688 5.9375 0 1 1 29.375 0z" transform="matrix(1.2596 0 0 1.0947 -22.831 -3.3684)" display="inline" stroke-width=".85160"/>
   <path id="path11075" opacity=".5" style="enable-background:new" d="m729.88 60.625a14.688 5.9375 0 1 1 -29.375 0 14.688 5.9375 0 1 1 29.375 0z" transform="matrix(1.0553 0 0 .90859 173.25 35.022)" display="inline" stroke-width="1.0212"/>
   <path id="path11084" opacity=".5" style="enable-background:new" d="m729.88 60.625a14.688 5.9375 0 1 1 -29.375 0 14.688 5.9375 0 1 1 29.375 0z" transform="matrix(1.0553 0 0 .97833 123.25 30.38)" display="inline" stroke-width=".98416"/>
   <path id="path11086" opacity=".5" style="enable-background:new" d="m729.88 60.625a14.688 5.9375 0 1 1 -29.375 0 14.688 5.9375 0 1 1 29.375 0z" transform="matrix(1.0894 0 0 .97833 98.901 27.38)" display="inline" stroke-width=".96866"/>
  </g>
 </g>
</svg>
