<?xml version="1.0" encoding="UTF-8" standalone="no"?>
<!-- Created with Inkscape (http://www.inkscape.org/) -->
<svg id="svg9662" xmlns:rdf="http://www.w3.org/1999/02/22-rdf-syntax-ns#" xmlns="http://www.w3.org/2000/svg" height="24" width="24" version="1.1" xmlns:cc="http://creativecommons.org/ns#" xmlns:xlink="http://www.w3.org/1999/xlink" xmlns:dc="http://purl.org/dc/elements/1.1/">
 <defs id="defs3">
  <filter id="filter10824" height="1.2825" width="1.209" color-interpolation-filters="sRGB" y="-.14123" x="-.10449">
   <feGaussianBlur id="feGaussianBlur10826" stdDeviation="0.95917508"/>
  </filter>
  <linearGradient id="linearGradient4333" y2="34.607" gradientUnits="userSpaceOnUse" x2="-545.52" gradientTransform="translate(569,1013)" y1="28.408" x1="-557.06">
   <stop id="stop10743" stop-color="#f46e6e" offset="0"/>
   <stop id="stop10749" stop-color="#f7d478" offset=".5"/>
   <stop id="stop10745" stop-color="#f46e6e" offset="1"/>
  </linearGradient>
  <linearGradient id="linearGradient4335" y2="36.362" gradientUnits="userSpaceOnUse" x2="-551" gradientTransform="translate(569,1013)" y1="27.362" x1="-551">
   <stop id="stop10755" stop-color="#e50000" offset="0"/>
   <stop id="stop10757" stop-color="#ab0000" offset="1"/>
  </linearGradient>
  <linearGradient id="linearGradient4337" y2="28.079" gradientUnits="userSpaceOnUse" x2="-557.01" gradientTransform="translate(569,1013)" y1="34.767" x1="-568.52">
   <stop id="stop10729" stop-color="#73d216" offset="0"/>
   <stop id="stop10735" stop-color="#efff20" offset=".5"/>
   <stop id="stop10731" stop-color="#89d216" offset="1"/>
  </linearGradient>
  <linearGradient id="linearGradient4339" y2="35.858" gradientUnits="userSpaceOnUse" x2="-563.29" gradientTransform="translate(569,1013)" y1="25.486" x1="-563.29">
   <stop id="stop10719" stop-color="#4e9a06" offset="0"/>
   <stop id="stop10721" stop-color="#346704" offset="1"/>
  </linearGradient>
  <linearGradient id="linearGradient4341" y2="40.663" gradientUnits="userSpaceOnUse" x2="-549.62" gradientTransform="translate(569,1013)" y1="15.384" x1="-562.87">
   <stop id="stop10836" stop-color="#fff" offset="0"/>
   <stop id="stop10838" stop-color="#fff" stop-opacity="0" offset="1"/>
  </linearGradient>
 </defs>
 <metadata id="metadata4">
  <rdf:RDF>
   <cc:Work rdf:about="">
    <dc:format>image/svg+xml</dc:format>
    <dc:type rdf:resource="http://purl.org/dc/dcmitype/StillImage"/>
    <dc:title/>
   </cc:Work>
  </rdf:RDF>
 </metadata>
 <g id="layer1" transform="translate(0 -1028.4)">
  <rect id="rect10657" fill-opacity="0" height="24" width="24" y="1029.4" x=".088379"/>
  <path id="path10769" d="m-555.82 22.937-11.801 3.1974v9.6581l11.801 3.4441 10.23-3.1316v-9.9706z" transform="matrix(1.0124 0 0 1 575.75 1011.2)" filter="url(#filter10824)" fill="#2e3436"/>
  <path id="path10705" stroke-linejoin="round" d="m23.514 1034.8-10.55-3.9367-1.4805 0.054 0.007 19.914 1.509 0.017 10.514-3.1427z" stroke="url(#linearGradient4335)" fill="url(#linearGradient4333)"/>
  <path id="path10691" stroke-linejoin="round" d="m0.55806 1034.8 10.471-3.9459h1.4422l0.0365 19.989-1.4631-0.031-10.487-3.1115z" stroke="url(#linearGradient4339)" fill="url(#linearGradient4337)"/>
  <path id="path10693" d="m2 1036.4 9.0165-3.0054-0.0442 15.034l-8.972-2z" fill="#fff"/>
  <path id="rect10668" d="m5 1037 2-0.3728v8.6465l-1.9844-0.3518z" fill="#539710"/>
  <path id="rect10672" d="m3 1040.1 6.5938-0.9381v3.3314l-6.5938-0.9z" fill="#539710"/>
  <path id="path10737" d="m22.016 1036.4-9.016-3l0.0442 15.034 8.9723-2.0281z" fill="#fff"/>
  <rect id="rect10798" rx="0" ry="0" height="2" width="2" y="1030.4" x="11" fill="#85680e"/>
  <rect id="rect10800" rx="0" ry="0" height="2" width="2" y="1049.4" x="11" fill="#85680e"/>
  <rect id="rect10767" rx="0" ry="0" height="19" width="2" y="1031.4" x="11" fill="#eabe35"/>
  <rect id="rect10842" rx="0" ry="0" height="1" width="2" y="1031.4" x="11" fill="#a78312"/>
  <path id="path10810" opacity=".75" d="m12.816 1031.9-1.6843 0.01-9.6106 3.6209-0.0183 11.457 9.5022 2.8463 1.9639 0.031 9.5057-2.8861 0.0335-11.455z" stroke="url(#linearGradient4341)" stroke-width="1px" fill="none"/>
  <path id="path10830" d="m21.062 1040.1-6.5938-0.9381v3.3314l6.5938-0.8463z" fill="#dc0000"/>
  <g id="layer9" stroke-linejoin="round" transform="translate(-1687.8 -118.06)" stroke="#000" stroke-linecap="round" display="none" fill="#fff">
   <path id="path11071" opacity=".5" style="enable-background:new" d="m729.88 60.625a14.688 5.9375 0 1 1 -29.375 0 14.688 5.9375 0 1 1 29.375 0z" transform="matrix(1.2596 0 0 1.0947 -22.831 -6.3684)" display="inline" stroke-width=".85160"/>
   <path id="path11073" opacity=".5" style="enable-background:new" d="m729.88 60.625a14.688 5.9375 0 1 1 -29.375 0 14.688 5.9375 0 1 1 29.375 0z" transform="matrix(1.2596 0 0 1.0947 -22.831 -3.3684)" display="inline" stroke-width=".85160"/>
   <path id="path11075" opacity=".5" style="enable-background:new" d="m729.88 60.625a14.688 5.9375 0 1 1 -29.375 0 14.688 5.9375 0 1 1 29.375 0z" transform="matrix(1.0553 0 0 .90859 173.25 35.022)" display="inline" stroke-width="1.0212"/>
   <path id="path11084" opacity=".5" style="enable-background:new" d="m729.88 60.625a14.688 5.9375 0 1 1 -29.375 0 14.688 5.9375 0 1 1 29.375 0z" transform="matrix(1.0553 0 0 .97833 123.25 30.38)" display="inline" stroke-width=".98416"/>
   <path id="path11086" opacity=".5" style="enable-background:new" d="m729.88 60.625a14.688 5.9375 0 1 1 -29.375 0 14.688 5.9375 0 1 1 29.375 0z" transform="matrix(1.0894 0 0 .97833 98.901 27.38)" display="inline" stroke-width=".96866"/>
  </g>
 </g>
</svg>
